<svg width="12" height="12" viewBox="0 0 12 12" fill="none" xmlns="http://www.w3.org/2000/svg">
<path d="M12 11H0V10H12V11ZM2.25 5C2.66421 5 3 5.33579 3 5.75V8.25C3 8.66421 2.66421 9 2.25 9H0.75C0.335786 9 0 8.66421 0 8.25V5.75C0 5.33579 0.335786 5 0.75 5H2.25ZM6.75 3C7.16421 3 7.5 3.33579 7.5 3.75V8.25C7.5 8.66421 7.16421 9 6.75 9H5.25C4.83579 9 4.5 8.66421 4.5 8.25V3.75C4.5 3.33579 4.83579 3 5.25 3H6.75ZM11.25 1C11.6642 1 12 1.33579 12 1.75V8.25C12 8.66421 11.6642 9 11.25 9H9.75C9.33579 9 9 8.66421 9 8.25V1.75C9 1.33579 9.33579 1 9.75 1H11.25ZM1 8H2V6H1V8ZM5.5 8H6.5V4H5.5V8ZM10 8H11V2H10V8ZM3 4H0V3H3V4ZM7.5 2H0V1H7.5V2Z" fill="#4285F4"/>
</svg>
