<svg width="13" height="12" viewBox="0 0 13 12" fill="none" xmlns="http://www.w3.org/2000/svg">
<path d="M9.28418 0.0712891C10.6025 0.0715018 11.6709 1.14065 11.6709 2.45898C11.6706 3.59852 10.8718 4.54977 9.80371 4.78711V6.2334C10.0084 6.3056 10.2005 6.42317 10.3643 6.58691L11.6191 7.8418C12.2048 8.42758 12.2049 9.37713 11.6191 9.96289L10.3643 11.2178C9.77847 11.8031 8.82882 11.8033 8.24316 11.2178L6.98828 9.96289C6.8175 9.79211 6.69815 9.58959 6.62695 9.375H5.27441V10.0635C5.27431 10.6708 4.78216 11.163 4.1748 11.1631H1.59961C0.992343 11.1629 0.500109 10.6708 0.5 10.0635V7.48828C0.500343 6.88119 0.992487 6.38888 1.59961 6.38867H2.37012V4.78711C1.30081 4.55059 0.500284 3.5993 0.5 2.45898C0.5 1.14051 1.56923 0.0712891 2.8877 0.0712891C4.20598 0.0715018 5.27441 1.14065 5.27441 2.45898C5.27413 3.61172 4.45682 4.57266 3.37012 4.7959V6.38867H4.1748C4.78201 6.38878 5.27407 6.88113 5.27441 7.48828V8.375H6.64648C6.71931 8.18081 6.83213 7.99807 6.98828 7.8418L8.24316 6.58691C8.40666 6.42343 8.59936 6.3066 8.80371 6.23438V4.79688C7.71569 4.57456 6.89677 3.61258 6.89648 2.45898C6.89648 1.14053 7.96574 0.0713221 9.28418 0.0712891ZM9.65723 7.29395C9.46197 7.09869 9.14546 7.09871 8.9502 7.29395L7.69531 8.54883C7.50046 8.74412 7.50019 9.06073 7.69531 9.25586L8.9502 10.5107C9.14533 10.7058 9.46196 10.7056 9.65723 10.5107L10.9121 9.25586C11.1073 9.06063 11.1073 8.74409 10.9121 8.54883L9.65723 7.29395ZM1.59961 7.38867C1.54477 7.38888 1.50034 7.43347 1.5 7.48828V10.0635C1.50011 10.1185 1.54463 10.1629 1.59961 10.1631H4.1748C4.22987 10.163 4.27431 10.1185 4.27441 10.0635V7.48828C4.27407 7.43341 4.22973 7.38878 4.1748 7.38867H1.59961ZM2.8877 1.07129C2.12151 1.07129 1.5 1.6928 1.5 2.45898C1.50033 3.22489 2.12171 3.8457 2.8877 3.8457C3.6535 3.84549 4.27409 3.22476 4.27441 2.45898C4.27441 1.69293 3.6537 1.0715 2.8877 1.07129ZM9.28418 1.07129C8.51802 1.07132 7.89648 1.69282 7.89648 2.45898C7.89681 3.22487 8.51822 3.84567 9.28418 3.8457C10.05 3.84549 10.6706 3.22476 10.6709 2.45898C10.6709 1.69293 10.0502 1.0715 9.28418 1.07129Z" fill="#4285F4"/>
</svg>
