<svg width="12" height="12" viewBox="0 0 12 12" fill="none" xmlns="http://www.w3.org/2000/svg">
<path d="M6 0C9.31371 0 12 2.68629 12 6C12 9.31371 9.31371 12 6 12C2.68629 12 0 9.31371 0 6C0 2.68629 2.68629 0 6 0ZM6 1C3.23858 1 1 3.23858 1 6C1 8.76142 3.23858 11 6 11C8.76142 11 11 8.76142 11 6C11 3.23858 8.76142 1 6 1ZM8 4H5V5.5H7C7.55228 5.5 8 5.94772 8 6.5V8C8 8.55228 7.55228 9 7 9H4V8H7V6.5H5C4.48232 6.5 4.05621 6.10667 4.00488 5.60254C4.00145 5.56884 4 5.53461 4 5.5V4C4 3.96539 4.00145 3.93116 4.00488 3.89746C4.05621 3.39333 4.48232 3 5 3H8V4Z" fill="#4285F4"/>
</svg>
