<svg width="12" height="12" viewBox="0 0 12 12" fill="none" xmlns="http://www.w3.org/2000/svg">
<path d="M9.5 0C10.2797 0 10.9204 0.594849 10.9932 1.35547L11 1.5V6H10V1.5C10 1.25454 9.82309 1.05015 9.58984 1.00781L9.5 1H2.5C2.25454 1 2.05015 1.17691 2.00781 1.41016L2 1.5V10.5C2 10.7455 2.17691 10.9499 2.41016 10.9922L2.5 11H6V12H2.5C1.72033 12 1.07955 11.4052 1.00684 10.6445L1 10.5V1.5C1 0.720327 1.59485 0.0795522 2.35547 0.00683594L2.5 0H9.5ZM9.5 7C10.8807 7 12 8.11929 12 9.5C12 10.8255 10.9682 11.9105 9.66406 11.9951L9.5 12H7V11H9.5C10.3284 11 11 10.3284 11 9.5C11 8.72033 10.4051 8.07955 9.64453 8.00684L9.5 8H8.20703L9.35352 9.14648L8.64648 9.85352L6.98828 8.19531C6.71491 7.92195 6.71491 7.47845 6.98828 7.20508C7.09328 7.10016 7.2283 7.03186 7.37305 7.00879L7.48242 7H9.5ZM5 7H3V6H5V7ZM9 4H3V3H9V4Z" fill="#4285F4"/>
</svg>
