<svg width="13" height="12" viewBox="0 0 13 12" fill="none" xmlns="http://www.w3.org/2000/svg">
<path fill-rule="evenodd" clip-rule="evenodd" d="M10.4813 1.71C10.4813 0.765593 9.71574 0 8.77133 0H1.71C0.765593 0 0 0.765593 0 1.71V10.8187C0 11.0568 0.0993006 11.2842 0.273994 11.446C0.62042 11.7669 1.16138 11.7462 1.48226 11.3997L3.11693 9.63493H6.20633C8.56735 9.63493 10.4813 7.72095 10.4813 5.35993V1.71ZM1.71 0.855H8.77133L8.87858 0.861662C9.30016 0.914421 9.62633 1.27412 9.62633 1.71V5.35993L9.62127 5.54758C9.52385 7.34912 8.03218 8.77993 6.20633 8.77993H2.74345L0.855 10.8187V1.71L0.861662 1.60275C0.914421 1.18117 1.27412 0.855 1.71 0.855ZM2.41877 2.45421H4.03128V4.09036H2.41877V2.45421ZM4.03128 5.7265V4.09036H5.64379V5.7265H4.03128ZM4.03128 5.7265V7.36264H2.41877V5.7265L4.03128 5.7265ZM12.0153 2.76596V5.70758C12.0153 5.91802 12.0036 6.12573 11.9808 6.3301L11.981 6.32984L12 11.4954L9.8144 10.1373C8.93585 10.8041 7.85288 11.2154 6.67604 11.2609L6.45782 11.2651H4.43475V10.4101H6.45782C8.98279 10.4101 11.043 8.42004 11.1555 5.92283L11.1603 5.70758V2.76596H12.0153Z" fill="#4285F4"/>
</svg>
