<svg width="12" height="12" viewBox="0 0 12 12" fill="none" xmlns="http://www.w3.org/2000/svg">
<g clip-path="url(#clip0_1642_8037)">
<path d="M10 0C11.1046 0 12 0.89543 12 2V6.84766L11 6V2C11 1.48716 10.6135 1.0646 10.1162 1.00684L10 1H2C1.48716 1 1.0646 1.38645 1.00684 1.88379L1 2V10C1 10.5128 1.38645 10.9354 1.88379 10.9932L2 11H6.17578L7.14648 12H2C0.89543 12 0 11.1046 0 10V2C0 0.89543 0.89543 0 2 0H10ZM11.8838 8.32031L9.69629 10.9424C9.69058 10.9484 9.68316 10.9562 9.67285 10.9668C9.31241 11.3267 8.7456 11.3545 8.35352 11.0498L8.25879 10.9668L7.14648 9.85352L7.85352 9.14648L8.96582 10.2598L11.1152 7.67969L11.8838 8.32031ZM5.57031 2.70703C5.74424 2.35785 6.23424 2.335 6.4502 2.6377L6.49219 2.70703L8.61816 6.98242L7.89648 7.81445L7.56543 7.14941H4.49609L3.50391 9.14551C3.39322 9.36774 3.13449 9.47416 2.89844 9.40625L2.82031 9.37695C2.59169 9.26943 2.48295 9.01821 2.55273 8.78906L2.58203 8.71289L5.57031 2.70703ZM4.99316 6.14941H7.06738L6.03125 4.06543L4.99316 6.14941Z" fill="#4285F4"/>
</g>
<defs>
<clipPath id="clip0_1642_8037">
<rect width="12" height="12" fill="white"/>
</clipPath>
</defs>
</svg>
