<svg width="12" height="12" viewBox="0 0 12 12" fill="none" xmlns="http://www.w3.org/2000/svg">
<path d="M10.5 1C11.3284 1 12 1.67157 12 2.5V8.5C12 9.32843 11.3284 10 10.5 10H4.70605L3.19531 11.5117C2.94932 11.7577 2.56553 11.7827 2.29199 11.5859L2.20508 11.5117C2.07401 11.3806 2.00011 11.203 2 11.0176V10H1.5C0.720327 10 0.0795521 9.40515 0.00683594 8.64453L0 8.5V2.5C0 1.67157 0.671573 1 1.5 1H10.5ZM1.5 2C1.22386 2 1 2.22386 1 2.5V8.5C1 8.77614 1.22386 9 1.5 9H2.2998C2.6864 9 3 9.3136 3 9.7002V10.292L4.08789 9.20508C4.1929 9.10007 4.32783 9.03187 4.47266 9.00879L4.58301 9H10.5C10.7761 9 11 8.77614 11 8.5V2.5C11 2.22386 10.7761 2 10.5 2H1.5ZM6.5 5H8.5V6H6.5V8H5.5V6H3.5V5H5.5V3H6.5V5Z" fill="#4285F4"/>
</svg>
