<svg width="12" height="12" viewBox="0 0 12 12" fill="none" xmlns="http://www.w3.org/2000/svg">
<path d="M9 0C10.5975 0 11.9036 1.24866 11.9951 2.82324L12 3H11C11 1.89543 10.1046 1 9 1C7.9457 1 7.08229 1.81581 7.00586 2.85059L7 3V4H8.5C9.32843 4 10 4.67157 10 5.5V10.5C10 11.3284 9.32843 12 8.5 12H1.5C0.671573 12 0 11.3284 0 10.5V5.5C0 4.67157 0.671573 4 1.5 4H6V3C6 1.34315 7.34315 0 9 0ZM1.5 5C1.22386 5 1 5.22386 1 5.5V10.5C1 10.7761 1.22386 11 1.5 11H8.5C8.77614 11 9 10.7761 9 10.5V5.5C9 5.22386 8.77614 5 8.5 5H1.5ZM5.5 9H4.5V7H5.5V9Z" fill="#4285F4"/>
</svg>
