<svg width="12" height="12" viewBox="0 0 12 12" fill="none" xmlns="http://www.w3.org/2000/svg">
<path d="M6 2C8.21573 2 10 3.8894 10 6.20605C9.99995 7.52138 9.41937 8.73542 8.45312 9.52539L8.0752 11.2188C7.98134 11.6373 7.63273 11.9448 7.21484 11.9932L7.09961 12H4.90137C4.43232 11.9999 4.026 11.6738 3.9248 11.2158L3.55273 9.53223L3.52344 9.50879C2.63015 8.76793 2.073 7.66043 2.00684 6.44922L2 6.20605C2 3.8894 3.78427 2 6 2ZM6 3C4.34974 3 3 4.42931 3 6.20605C3.00005 7.27562 3.4933 8.2534 4.2998 8.84766L4.45117 8.95898L4.90137 11H7.09961L7.55859 8.95215L7.70801 8.8418C8.51013 8.24685 8.99995 7.2721 9 6.20605C9 4.42931 7.65026 3 6 3Z" fill="#4285F4"/>
<path d="M7 9V10H5V9H7Z" fill="#4285F4"/>
<path d="M1.5 6V7H0V6H1.5Z" fill="#4285F4"/>
<path d="M12 6V7H10.5V6H12Z" fill="#4285F4"/>
<path d="M6.5 0V1.5H5.5V0H6.5Z" fill="#4285F4"/>
<path d="M11.0389 2.45766L9.97823 3.51832L9.27113 2.81121L10.3318 1.75055L11.0389 2.45766Z" fill="#4285F4"/>
<path d="M0.601975 2.45766L1.66264 3.51832L2.36974 2.81121L1.30908 1.75055L0.601975 2.45766Z" fill="#4285F4"/>
</svg>
