<svg width="12" height="12" viewBox="0 0 12 12" fill="none" xmlns="http://www.w3.org/2000/svg">
<path d="M5.99999 0C8.20913 0 9.99999 1.79086 9.99999 4C9.99999 4.32086 9.96183 4.6369 9.88769 4.94336L9.82616 5.17188L8.86913 4.87891C8.95543 4.59679 8.99999 4.30167 8.99999 4C8.99999 2.34315 7.65685 1 5.99999 1C4.34319 1.00006 2.99999 2.34318 2.99999 4C2.99999 5.59768 4.2494 6.90387 5.82421 6.99512L5.99999 7V8H3.56152C2.63719 8.00006 1.82419 8.59206 1.53319 9.45605L1.48534 9.62109L1.29589 10.3789C1.22904 10.6466 1.39153 10.9182 1.65917 10.9854L1.71972 10.9961L1.78124 11H5.99999V12H1.78124C1.6586 12 1.53596 11.9848 1.41698 11.9551C0.660757 11.766 0.183112 11.0337 0.296867 10.2783L0.325187 10.1357L0.51464 9.37891C0.833748 8.10247 1.90905 7.17333 3.19042 7.02148L3.3623 7.00586L3.23827 6.89355C2.52027 6.20801 2.05689 5.25741 2.00487 4.19922L1.99999 4C1.99999 1.7909 3.7909 5.81295e-05 5.99999 0ZM4.72167 8.28516C4.8848 8.55002 5.12621 8.75825 5.41015 8.87988L5.55566 8.93359L5.25976 9.88867C4.74507 9.72929 4.29797 9.40653 3.98241 8.97559L3.87011 8.80859L4.72167 8.28516Z" fill="#4285F4"/>
<path d="M9 6C10.6569 6 12 7.34315 12 9C12 10.6569 10.6569 12 9 12C7.34315 12 6 10.6569 6 9C6 7.34315 7.34315 6 9 6ZM9 7C7.89543 7 7 7.89543 7 9C7 10.1046 7.89543 11 9 11C10.1046 11 11 10.1046 11 9C11 7.89543 10.1046 7 9 7ZM9.5 9.19141L9.91992 9.40039L9.47266 10.2949L8.88672 10.0029C8.67923 9.89918 8.53876 9.70023 8.50684 9.47461L8.5 9.37598V8H9.5V9.19141Z" fill="#4285F4"/>
</svg>
