<svg width="12" height="12" viewBox="0 0 12 12" fill="none" xmlns="http://www.w3.org/2000/svg">
<path fill-rule="evenodd" clip-rule="evenodd" d="M0.962275 7.21928C-0.366695 5.75291 -0.314472 3.49469 1.09012 2.0901C2.39323 0.786992 4.42222 0.652188 5.87551 1.68569L6.00002 1.77965L6.12454 1.68569C7.52193 0.691938 9.4516 0.778351 10.7564 1.94492L10.9099 2.0901C12.3097 3.48984 12.3669 5.7383 11.041 7.21553L10.9099 7.35355L7.18344 11.08C6.52986 11.7336 5.47019 11.7336 4.81661 11.08L1.08156 7.34478L0.962275 7.21928ZM10.3059 6.53768C11.2682 5.46531 11.2264 3.82077 10.2028 2.7972C9.13988 1.73427 7.41652 1.73427 6.35358 2.7972L6.00002 3.15076L5.64647 2.7972C4.58353 1.73427 2.86017 1.73427 1.79723 2.7972C0.770112 3.82432 0.731916 5.47599 1.69487 6.53873L1.79723 6.64645L5.52371 10.3729C5.78677 10.636 6.21328 10.636 6.47634 10.3729L10.1934 6.65611L10.3059 6.53768Z" fill="#4285F4"/>
</svg>
