<svg width="12" height="12" viewBox="0 0 12 12" fill="none" xmlns="http://www.w3.org/2000/svg">
<path d="M8.5 1C9.32843 1 10 1.67157 10 2.5V4H10.5C11.2797 4 11.9204 4.59485 11.9932 5.35547L12 5.5V9.5C12 10.2797 11.4052 10.9204 10.6445 10.9932L10.5 11H10V11.126C10 11.2295 9.97738 11.3319 9.93359 11.4248L9.88281 11.5146C9.68786 11.8071 9.31055 11.9054 9.00195 11.7598L8.91211 11.709L7.84863 11H5.5C4.73682 11 4.10818 10.4299 4.01367 9.69238L3.19531 10.5117C2.94932 10.7577 2.56553 10.7827 2.29199 10.5859L2.20508 10.5117C2.07401 10.3806 2.00011 10.203 2 10.0176V9H1.5C0.720327 9 0.0795521 8.40515 0.00683594 7.64453L0 7.5V2.5C0 1.67157 0.671573 1 1.5 1H8.5ZM10 7.5C10 8.32843 9.32843 9 8.5 9H5V9.5C5 9.74546 5.17691 9.94985 5.41016 9.99219L5.5 10H7.96191C8.05438 10 8.14555 10.0205 8.22852 10.0596L8.30859 10.1045L9.00391 10.5684L9.00684 10.5322C9.04715 10.2613 9.26132 10.0471 9.53223 10.0068L9.625 10H10.5C10.7455 10 10.9499 9.82309 10.9922 9.58984L11 9.5V5.5C11 5.25454 10.8231 5.05015 10.5898 5.00781L10.5 5H10V7.5ZM1.5 2C1.22386 2 1 2.22386 1 2.5V7.5C1 7.77614 1.22386 8 1.5 8H2.375C2.72018 8 3 8.27982 3 8.625V9.29199L4.10938 8.18262C4.20307 8.08892 4.32392 8.02846 4.45312 8.00781L4.55176 8H8.5C8.77614 8 9 7.77614 9 7.5V2.5C9 2.22386 8.77614 2 8.5 2H1.5Z" fill="#4285F4"/>
</svg>
