<svg width="12" height="12" viewBox="0 0 12 12" fill="none" xmlns="http://www.w3.org/2000/svg">
<path d="M4 1H8V0H9V1H10.5C11.3284 1 12 1.67157 12 2.5V10.5C12 11.3284 11.3284 12 10.5 12H1.5C0.671573 12 0 11.3284 0 10.5V2.5C0 1.67157 0.671573 1 1.5 1H3V0H4V1ZM1.5 2C1.22386 2 1 2.22386 1 2.5V10.5C1 10.7761 1.22386 11 1.5 11H10.5C10.7761 11 11 10.7761 11 10.5V2.5C11 2.22386 10.7761 2 10.5 2H9V3H8V2H4V3H3V2H1.5ZM9.35352 5.35352L5 9.70703L2.64648 7.35352L3.35352 6.64648L5 8.29297L8.64648 4.64648L9.35352 5.35352Z" fill="#4285F4"/>
</svg>
