<svg width="12" height="12" viewBox="0 0 12 12" fill="none" xmlns="http://www.w3.org/2000/svg">
<path d="M4.08594 1C4.43394 1.00004 4.76927 1.12123 5.03613 1.33984L5.14648 1.43945L6.56055 2.85352C6.63556 2.92853 6.73248 2.97765 6.83594 2.99414L6.91406 3H10.3477C11.1758 3.00036 11.8477 3.67179 11.8477 4.5C11.8477 4.5709 11.842 4.64172 11.832 4.71191L11.1182 9.71191C11.0126 10.4508 10.3792 10.9998 9.63281 11H1.5C0.720327 11 0.0795524 10.4052 0.00683594 9.64453L0 9.5V2.5C0 1.72033 0.594849 1.07955 1.35547 1.00684L1.5 1H4.08594ZM3.36719 4C3.11856 4.00021 2.90823 4.18352 2.87305 4.42969L2.1543 9.46484L2.15332 9.5C2.15332 9.77614 2.37718 10 2.65332 10H9.63281C9.8815 9.99985 10.0928 9.81653 10.1279 9.57031L10.8457 4.53516L10.8477 4.5C10.8477 4.22408 10.6235 4.00036 10.3477 4H3.36719ZM1.5 2C1.25454 2 1.05015 2.17691 1.00781 2.41016L1 2.5V9.5C1 9.66758 1.08342 9.81455 1.20996 9.90527C1.1738 9.77624 1.15332 9.64058 1.15332 9.5C1.15332 9.42911 1.15796 9.35826 1.16797 9.28809L1.88281 4.28809C1.98838 3.54927 2.62091 3.00021 3.36719 3H5.29297L4.43945 2.14648C4.36444 2.07147 4.26752 2.02235 4.16406 2.00586L4.08594 2H1.5ZM11 2H7V1H11V2Z" fill="#4285F4"/>
</svg>
