<svg width="12" height="12" viewBox="0 0 12 12" fill="none" xmlns="http://www.w3.org/2000/svg">
<path fill-rule="evenodd" clip-rule="evenodd" d="M3.26631 1H8.78068C9.11693 1 9.43066 1.16899 9.61568 1.44975L11.6988 4.61094C11.9549 4.99947 11.9091 5.51326 11.5884 5.8504L7.08683 10.5829C6.51588 11.1831 5.56642 11.2069 4.96618 10.6359L0.414213 5.85316C0.0911167 5.51349 0.0473492 4.99497 0.308938 4.60595L2.43647 1.44199C2.62225 1.1657 2.93336 1 3.26631 1ZM8.78068 2H3.26631L1.13878 5.16395L5.65539 9.91134C5.85547 10.1017 6.17195 10.0937 6.36227 9.89367L10.8638 5.16119L8.78068 2Z" fill="#4285F4"/>
</svg>
