<svg width="12" height="12" viewBox="0 0 12 12" fill="none" xmlns="http://www.w3.org/2000/svg">
<path d="M6.28906 0.000976562C6.38415 0.00193774 6.47845 0.00393061 6.57129 0.00585938L7.11426 0.0234375C9.49634 0.128552 11 0.594109 11 1.5V4.5C11 5.40589 9.49634 5.87145 7.11426 5.97656L6.57129 5.99414L6 6L5.42871 5.99414L4.88574 5.97656C3.66466 5.92268 2.67515 5.7717 2 5.51758V7.5C2 7.43698 1.99752 7.42152 2.03223 7.43848L2.06543 7.45703C2.22281 7.54837 2.48324 7.63989 2.82715 7.71973C3.5265 7.88202 4.50336 7.98047 5.65039 7.99707L6 8V9L5.42871 8.99414L4.88574 8.97656C3.66466 8.92268 2.67515 8.7717 2 8.51758V10.4609C2.00094 10.4311 2.00632 10.4258 2.03223 10.4385L2.06543 10.457C2.22281 10.5484 2.48324 10.6399 2.82715 10.7197C3.5265 10.882 4.50336 10.9805 5.65039 10.9971L6 11V12L5.42871 11.9941L4.88574 11.9766C2.59189 11.8753 1.11227 11.4397 1.00586 10.5986L1 10.5V1.5C1 0.594109 2.50366 0.128552 4.88574 0.0234375L5.42871 0.00585938C5.61455 0.00199854 5.80528 0 6 0L6.28906 0.000976562ZM11.375 7C11.6887 7 11.9483 7.23105 11.9932 7.53223L12 7.625V11H11V8.70703L7.85352 11.8535L7.14648 11.1465L10.293 8H8V7H11.375ZM10 2.51758C9.32478 2.77167 8.33539 2.92268 7.11426 2.97656L6.57129 2.99414L6 3L5.42871 2.99414L4.88574 2.97656C3.66461 2.92268 2.67522 2.77167 2 2.51758V4.5C2 4.43698 1.99752 4.42152 2.03223 4.43848L2.06543 4.45703C2.22281 4.54837 2.48324 4.63989 2.82715 4.71973C3.59654 4.89827 4.70171 5 6 5C7.29829 5 8.40346 4.89827 9.17285 4.71973C9.45915 4.65327 9.68747 4.57885 9.84668 4.50293L9.93457 4.45703C9.99005 4.42484 9.99874 4.42113 10 4.46094V2.51758ZM6 1C4.70171 1 3.59654 1.10173 2.82715 1.28027C2.59794 1.33348 2.40597 1.39193 2.25684 1.45215L2.14746 1.49902C2.28072 1.56321 2.45214 1.6231 2.66211 1.67871L2.82715 1.71973C3.59654 1.89827 4.70171 2 6 2C7.29829 2 8.40346 1.89827 9.17285 1.71973C9.40206 1.66652 9.59403 1.60807 9.74316 1.54785L9.85156 1.49902C9.7193 1.43682 9.54788 1.3769 9.33789 1.32129L9.17285 1.28027C8.40346 1.10173 7.29829 1 6 1Z" fill="#4285F4"/>
</svg>
