<svg width="12" height="12" viewBox="0 0 12 12" fill="none" xmlns="http://www.w3.org/2000/svg">
<path fill-rule="evenodd" clip-rule="evenodd" d="M0 6C0 2.68629 2.68629 0 6 0C9.31371 0 12 2.68629 12 6C12 9.31371 9.31371 12 6 12C2.68629 12 0 9.31371 0 6ZM11 6C11 3.23858 8.76142 1 6 1C3.23858 1 1 3.23858 1 6C1 8.76142 3.23858 11 6 11C8.76142 11 11 8.76142 11 6Z" fill="#4285F4"/>
<path d="M6.11621 0.0976562C7.52127 1.55332 8.36544 3.45645 8.48438 5.5H12V6.5H8.4834C8.36887 8.4673 7.58333 10.3042 6.27246 11.7363L6.05469 11.9658L5.88281 11.7959L5.83008 11.8467C4.45653 10.3977 3.633 8.5169 3.51562 6.5H0V5.5H3.5166C3.62528 3.63242 4.33874 1.8811 5.53613 0.480469L5.74609 0.243164L5.85742 0.345703L6.11621 0.0976562ZM4.51855 6.5C4.61523 7.96599 5.1345 9.34613 6 10.498C6.86489 9.34693 7.3847 7.96666 7.48145 6.5H4.51855ZM6 1.5C5.13349 2.65277 4.61521 4.03398 4.51855 5.5H7.48145C7.38471 4.03317 6.86578 2.65179 6 1.5Z" fill="#4285F4"/>
</svg>
