<svg width="12" height="12" viewBox="0 0 12 12" fill="none" xmlns="http://www.w3.org/2000/svg">
<path d="M6.94824 1C7.38143 1.00041 7.7866 1.21391 8.03125 1.57031C8.32938 2.00307 8.56538 2.39822 8.73828 2.75781C8.86943 3.03061 8.98645 3.32347 9.0918 3.63477C9.33591 3.59024 9.59395 3.56642 9.87988 3.56641C10.4758 3.56641 11.0466 3.69221 11.5811 3.93848L11.6553 3.97754L11.7236 4.02734C11.9498 4.21741 12.0008 4.53835 11.8594 4.78613L11.7979 4.875L11.7861 4.87598C11.6517 5.04356 11.5332 5.19612 11.4375 5.33789L11.3408 5.49219L10.749 6.71094L10.4512 7.29199L10.3604 7.45801C10.2699 7.61766 10.1786 7.77045 10.0859 7.91602C9.0242 9.58323 6.46913 11.1735 4 10.9834C2.33631 10.8553 1.14933 10.4882 0.433594 9.84473C0.192924 9.6265 0.0423002 9.32831 0.0078125 9.00781L0 8.86914V4.24121C0.00292234 4.05769 0.0898478 3.88538 0.235352 3.77344C0.499252 3.57062 0.87789 3.62022 1.07227 3.875C1.75303 4.72109 2.78394 5.55759 4.16504 6.37891C4.3018 6.46023 4.44802 6.5426 4.60059 6.62402L4.76172 6.70898L4.77246 6.70312C5.08054 6.51163 5.34862 6.32149 5.5791 6.13672C5.1729 5.43366 4.72672 4.78089 4.24023 4.17871C3.72867 3.54552 2.96948 2.84404 1.9873 2.09668C1.70194 1.9046 1.64058 1.51636 1.8418 1.24414C1.93441 1.11898 2.07094 1.03525 2.22754 1.00879L2.32324 1H6.94824ZM1 8.86816C1.00025 8.95759 1.03837 9.04336 1.10352 9.10254C1.6199 9.56675 2.61267 9.8736 4.07715 9.98633C5.37429 10.0862 6.73712 9.57368 7.78809 8.83594L7.88184 8.7666L7.68555 8.76465C6.76234 8.72056 5.10283 8.05786 3.88965 7.375L3.65332 7.23926C2.66922 6.65403 1.84374 6.05344 1.17383 5.43457L1 5.26953V8.86816ZM9.87988 4.56641C9.30192 4.56645 8.89161 4.67516 8.41211 4.92578L8.16406 5.06543L7.97949 5.18359L7.92676 5.22363L7.83398 5.30371L7.52441 5.61328L6.77246 6.40332C6.56438 6.62228 6.31529 6.83987 6.02637 7.05762L5.82617 7.2041L6.06738 7.30273C6.6429 7.53062 7.18833 7.69972 7.57617 7.75098L7.73242 7.76562C8.4413 7.79947 9.04791 7.47499 9.58398 6.74609L9.67969 6.60742L10.4756 4.99121L10.4912 4.96191C10.5261 4.90373 10.5644 4.84478 10.6045 4.78516L10.6816 4.67383L10.54 4.63672C10.3971 4.60538 10.2513 4.58466 10.1035 4.57422L9.87988 4.56641ZM3.72754 2.22852C4.24711 2.68789 4.67659 3.12871 5.01758 3.55078C5.48775 4.13276 5.92095 4.75823 6.31934 5.42578L6.73828 4.98438C6.76708 4.95495 6.79531 4.92641 6.82324 4.89844C7.06255 4.65877 7.2711 4.47251 7.47461 4.3252L7.69238 4.18164L7.73145 4.1582C7.87042 4.07858 8.00596 4.00838 8.13965 3.94531C8.04799 3.67573 7.94864 3.42381 7.83691 3.19141C7.68832 2.88233 7.47818 2.53031 7.20703 2.13672C7.16001 2.06839 7.08859 2.02173 7.00879 2.00586L6.94727 2L3.46191 1.99902L3.72754 2.22852Z" fill="#4285F4"/>
</svg>
