<svg width="12" height="12" viewBox="0 0 12 12" fill="none" xmlns="http://www.w3.org/2000/svg">
<path d="M6 0C7.65685 0 9 1.34315 9 3V4H9.5C10.3284 4 11 4.67157 11 5.5V10.5C11 11.3284 10.3284 12 9.5 12H2.5C1.67157 12 1 11.3284 1 10.5V5.5C1 4.67157 1.67157 4 2.5 4H3V3C3 1.34315 4.34315 0 6 0ZM2.5 5C2.22386 5 2 5.22386 2 5.5V10.5C2 10.7761 2.22386 11 2.5 11H9.5C9.77614 11 10 10.7761 10 10.5V5.5C10 5.22386 9.77614 5 9.5 5H2.5ZM6.5 9H5.5V7H6.5V9ZM6 1C4.89543 1 4 1.89543 4 3V4H8V3C8 1.9457 7.18419 1.08229 6.14941 1.00586L6 1Z" fill="#4285F4"/>
</svg>
