<svg width="12" height="12" viewBox="0 0 12 12" fill="none" xmlns="http://www.w3.org/2000/svg">
<path d="M10.5 1C11.3284 1 12 1.67157 12 2.5V9.5C12 10.3284 11.3284 11 10.5 11H1.5C0.671573 11 0 10.3284 0 9.5V2.5C0 1.67157 0.671573 1 1.5 1H10.5ZM1 9.5C1 9.77614 1.22386 10 1.5 10H10.5C10.7761 10 11 9.77614 11 9.5V4H1V9.5ZM8.5 9H6V8H8.5V9ZM5.21191 6.50488C5.45792 6.75089 5.48289 7.13466 5.28613 7.4082L5.21191 7.49512L3.85352 8.85352L3.14648 8.14648L4.29297 7L3.14648 5.85352L3.85352 5.14648L5.21191 6.50488ZM1.5 2C1.22386 2 1 2.22386 1 2.5V3H11V2.5C11 2.22386 10.7761 2 10.5 2H1.5Z" fill="#4285F4"/>
</svg>
