<svg width="12" height="12" viewBox="0 0 12 12" fill="none" xmlns="http://www.w3.org/2000/svg">
<path d="M4.5 0C5.93717 0 7.17102 0.866648 7.70996 2.10547C7.96494 2.03601 8.23007 2 8.5 2C10.1569 2 11.5 3.34315 11.5 5C11.5 5.87071 11.1266 6.65217 10.5342 7.2002C11.0013 7.41898 11.3817 7.8048 11.5898 8.29492L11.6504 8.4541L11.9229 9.27148C12.152 9.95954 11.7798 10.7033 11.0918 10.9326C11.0026 10.9623 10.9106 10.9821 10.8174 10.9922L10.6768 11H8.96484C8.85482 11.4454 8.51532 11.8206 8.04199 11.9521C7.92771 11.9839 7.80903 12 7.69043 12H1.31836C0.59298 12 0.00488281 11.4119 0.00488281 10.6865C0.00488831 10.5691 0.0206607 10.4521 0.0517578 10.3389L0.540039 8.56348C0.793769 7.64013 1.63324 7 2.59082 7H8.5C9.60457 7 10.5 6.10457 10.5 5C10.5 3.89543 9.60457 3 8.5 3C8.31937 3 8.14254 3.02403 7.97266 3.07031C7.98991 3.21118 8 3.35448 8 3.5C8 5.433 6.433 7 4.5 7C2.567 7 1 5.433 1 3.5C1 1.567 2.567 0 4.5 0ZM2.59082 8C2.08355 8 1.6384 8.33903 1.50391 8.82812L1.01562 10.6035C1.00821 10.6305 1.00489 10.6585 1.00488 10.6865C1.00488 10.8596 1.14527 11 1.31836 11H7.69043C7.71866 11 7.74721 10.9958 7.77441 10.9883C7.94087 10.9418 8.03838 10.7691 7.99219 10.6025L7.49902 8.8252C7.37199 8.36798 6.97325 8.04274 6.50684 8.00391L6.41309 8H2.59082ZM6.33203 8.93555C5.95257 9.58905 5.26153 10 4.5 10C3.8252 10 3.20471 9.67738 2.80762 9.14648L2.71387 9.00879L3.55762 8.47266C3.76557 8.80006 4.11665 9 4.5 9C4.85502 9 5.18249 8.82886 5.39355 8.54492L5.4668 8.43262L6.33203 8.93555ZM8.21484 8C8.32155 8.17052 8.40704 8.35733 8.46289 8.55859L8.86328 10H10.6768C10.7102 9.99997 10.7436 9.99493 10.7754 9.98438C10.9161 9.93746 11.0012 9.79983 10.9883 9.6582L10.9736 9.58789L10.7012 8.77051C10.5606 8.34876 10.1868 8.05323 9.75195 8.00684L9.63281 8H8.21484ZM4.5 1C3.11929 1 2 2.11929 2 3.5C2 4.88071 3.11929 6 4.5 6C5.88071 6 7 4.88071 7 3.5C7 2.11929 5.88071 1 4.5 1Z" fill="#4285F4"/>
</svg>
