<svg width="12" height="12" viewBox="0 0 12 12" fill="none" xmlns="http://www.w3.org/2000/svg">
<path fill-rule="evenodd" clip-rule="evenodd" d="M1.5 1H4.08579C4.48361 1 4.86514 1.15804 5.14645 1.43934L6.56066 2.85355C6.65443 2.94732 6.78161 3 6.91421 3H10.5C11.3284 3 12 3.67157 12 4.5V9.5C12 10.3284 11.3284 11 10.5 11H1.5C0.671573 11 0 10.3284 0 9.5V2.5C0 1.67157 0.671573 1 1.5 1ZM4.08579 2H1.5C1.22386 2 1 2.22386 1 2.5V9.5C1 9.77614 1.22386 10 1.5 10H10.5C10.7761 10 11 9.77614 11 9.5V4.5C11 4.22386 10.7761 4 10.5 4H6.91421C6.51639 4 6.13486 3.84196 5.85355 3.56066L4.43934 2.14645C4.34557 2.05268 4.21839 2 4.08579 2Z" fill="#4285F4"/>
<path d="M11 1V2H7V1H11Z" fill="#4285F4"/>
</svg>
