<svg width="12" height="12" viewBox="0 0 12 12" fill="none" xmlns="http://www.w3.org/2000/svg">
<path fill-rule="evenodd" clip-rule="evenodd" d="M7.6748 0C9.22331 0 10.4786 1.25531 10.4786 2.80382C10.4786 4.19139 9.47067 5.34354 8.14702 5.56803L8.14734 10.2891C8.14734 10.6581 7.9441 10.9971 7.61862 11.1711L7.04558 11.4773C6.43728 11.8023 5.70419 11.7898 5.10731 11.4443L4.64634 11.1774C4.3375 10.9986 4.14734 10.6688 4.14734 10.312L4.14734 5.58922C2.75102 5.429 1.66663 4.24305 1.66663 2.80382C1.66663 1.25531 2.92194 0 4.47044 0H7.6748ZM7.6748 1H4.47044C3.47422 1 2.66663 1.8076 2.66663 2.80382C2.66663 3.67142 3.28285 4.40606 4.11274 4.57237L4.26133 4.59573L5.14734 4.69739L5.14734 10.312L5.60831 10.5788C5.86861 10.7295 6.18087 10.7531 6.45796 10.6481L6.57431 10.5953L7.14734 10.2891L7.14724 8.79564H6.49996C6.22382 8.79564 5.99996 8.57178 5.99996 8.29564C5.99996 8.0195 6.22382 7.79564 6.49996 7.79564H7.14717L7.14713 7.19346H6.49996C6.22382 7.19346 5.99996 6.9696 5.99996 6.69346C5.99996 6.41732 6.22382 6.19346 6.49996 6.19346H7.14706L7.14696 4.72337L7.97981 4.58211C8.8394 4.43632 9.47862 3.6867 9.47862 2.80382C9.47862 1.85741 8.74976 1.08123 7.82274 1.00598L7.6748 1ZM5.61077 1.58583C5.27895 1.58583 5.00995 1.85482 5.00995 2.18665C5.00995 2.51847 5.27895 2.78746 5.61077 2.78746H6.59738C6.9292 2.78746 7.1982 2.51847 7.1982 2.18665C7.1982 1.85482 6.9292 1.58583 6.59738 1.58583H5.61077Z" fill="#4285F4"/>
</svg>
