<svg width="12" height="12" viewBox="0 0 12 12" fill="none" xmlns="http://www.w3.org/2000/svg">
<path d="M9.5 0C10.2797 0 10.9204 0.594849 10.9932 1.35547L11 1.5V5H10V1.5C10 1.25454 9.82309 1.05015 9.58984 1.00781L9.5 1H9V2C9 2.51284 8.61355 2.9354 8.11621 2.99316L8 3H4C3.48716 3 3.0646 2.61355 3.00684 2.11621L3 2V1H2.5C2.25454 1 2.05015 1.17691 2.00781 1.41016L2 1.5V10.5C2 10.7455 2.17691 10.9499 2.41016 10.9922L2.5 11H6V12H2.5C1.72033 12 1.07955 11.4052 1.00684 10.6445L1 10.5V1.5C1 0.720327 1.59485 0.0795522 2.35547 0.00683594L2.5 0H9.5ZM9 6C10.6569 6 12 7.34315 12 9C12 10.6569 10.6569 12 9 12C7.34315 12 6 10.6569 6 9C6 7.34315 7.34315 6 9 6ZM9 7C7.89543 7 7 7.89543 7 9C7 10.1046 7.89543 11 9 11C10.1046 11 11 10.1046 11 9C11 7.89543 10.1046 7 9 7ZM9.5 9.19141L9.91992 9.40039L9.47266 10.2949L8.88672 10.0029C8.67923 9.89918 8.53876 9.70023 8.50684 9.47461L8.5 9.37598V8H9.5V9.19141ZM4 2H8V1H4V2Z" fill="#4285F4"/>
</svg>
