<svg width="13" height="12" viewBox="0 0 13 12" fill="none" xmlns="http://www.w3.org/2000/svg">
<path d="M3.82178 8.25C4.51213 8.25 5.07178 8.80964 5.07178 9.5C5.07178 10.1904 4.51213 10.75 3.82178 10.75C3.13142 10.75 2.57178 10.1904 2.57178 9.5C2.57178 8.80964 3.13142 8.25 3.82178 8.25ZM3.82178 9.25C3.68371 9.25 3.57178 9.36193 3.57178 9.5C3.57178 9.63807 3.68371 9.75 3.82178 9.75C3.95985 9.75 4.07178 9.63807 4.07178 9.5C4.07178 9.36193 3.95985 9.25 3.82178 9.25Z" fill="#4285F4"/>
<path d="M6.82178 5.75C7.78828 5.75 8.57178 6.5335 8.57178 7.5C8.57178 8.4665 7.78828 9.25 6.82178 9.25C5.85528 9.25 5.07178 8.4665 5.07178 7.5C5.07178 6.5335 5.85528 5.75 6.82178 5.75ZM6.82178 6.75C6.40756 6.75 6.07178 7.08579 6.07178 7.5C6.07178 7.91421 6.40756 8.25 6.82178 8.25C7.23599 8.25 7.57178 7.91421 7.57178 7.5C7.57178 7.08579 7.23599 6.75 6.82178 6.75Z" fill="#4285F4"/>
<path d="M7.07178 4V5H5.07178V4H7.07178Z" fill="#4285F4"/>
<path d="M9.00001 0C9.31555 0 9.57122 0.255762 9.5713 0.571289V1.04004C9.5711 1.35547 9.31548 1.61133 9.00001 1.61133H8.97169L8.97266 5.24219L8.98145 5.26953L11.9951 10.3848C12.0922 10.5496 12.1436 10.7375 12.1436 10.9287C12.1435 11.5203 11.6638 11.9998 11.0723 12H1.0713C0.880145 11.9999 0.692054 11.9486 0.527352 11.8516C0.0178175 11.5511 -0.15181 10.8945 0.148445 10.3848L3.16212 5.26953C3.16854 5.25863 3.17183 5.24604 3.17188 5.2334V1.61133H3.14356C2.85967 1.61133 2.62356 1.40412 2.57911 1.13281L2.5713 1.04004V0.571289C2.57137 0.255762 2.82802 0 3.14356 0H9.00001ZM4.17188 1V5.2334C4.17184 5.37673 4.14321 5.51821 4.0879 5.64941L4.02345 5.77734L1.00977 10.8926C0.990026 10.9265 1.00135 10.9703 1.03516 10.9902C1.04606 10.9967 1.05865 10.9999 1.0713 11H11.0723C11.1115 10.9998 11.1435 10.968 11.1436 10.9287C11.1436 10.9161 11.1401 10.9035 11.1338 10.8926L8.12013 5.77734C8.0231 5.61264 7.97174 5.42455 7.97169 5.2334V1H4.17188Z" fill="#4285F4"/>
</svg>
