<svg width="12" height="12" viewBox="0 0 12 12" fill="none" xmlns="http://www.w3.org/2000/svg">
<path d="M10.502 0C11.3304 0 12.002 0.671573 12.002 1.5V6.5C12.002 7.32843 11.3304 8 10.502 8H9.7207L9.5791 8.15332C9.21371 8.56433 8.89702 8.98535 8.62988 9.41699L8.43945 9.74316C8.2302 10.1198 8.07362 10.4839 7.9707 10.8359C7.76918 11.5255 7.13734 11.9999 6.41895 12C5.61007 12 4.95409 11.344 4.9541 10.5381L4.95996 10.2217C4.9677 10.0134 4.98278 9.81028 5.00488 9.61133C5.05584 9.15282 5.16632 8.61641 5.33496 8H2.62012C1.23941 8 0.120117 6.88071 0.120117 5.5C0.120117 5.29092 0.146398 5.08244 0.198242 4.87988L0.96582 1.87988C1.24903 0.773736 2.24587 7.19385e-05 3.3877 0H10.502ZM3.3877 1C2.70262 1.00007 2.10448 1.46425 1.93457 2.12793L1.16699 5.12793C1.13589 5.24946 1.12012 5.37455 1.12012 5.5C1.12012 6.32843 1.79169 7 2.62012 7H5.33691C5.42485 7.00017 5.5128 7.0121 5.59766 7.03516C6.13037 7.18017 6.44498 7.72951 6.2998 8.2627C6.14382 8.83281 6.04365 9.32014 5.99902 9.72168C5.96989 9.98387 5.95488 10.2553 5.9541 10.5303L5.96191 10.6152C6.0014 10.8357 6.19098 11 6.41895 11C6.6931 10.9999 6.93481 10.8188 7.01172 10.5557C7.13629 10.1295 7.32027 9.69636 7.56445 9.25684C7.94121 8.57868 8.42085 7.92846 9 7.30469V1H3.3877ZM10 7H10.502C10.7781 7 11.002 6.77614 11.002 6.5V1.5C11.002 1.22386 10.7781 1 10.502 1H10V7Z" fill="#4285F4"/>
</svg>
