<svg width="12" height="12" viewBox="0 0 12 12" fill="none" xmlns="http://www.w3.org/2000/svg">
<path d="M6.00039 1.5C8.06659 1.5002 9.92108 2.74195 11.5541 5.16113C11.8961 5.66809 11.8964 6.33204 11.5512 6.84375L11.3607 7.11816C9.77588 9.35303 7.98516 10.4998 6.00039 10.5C3.93402 10.5 2.07882 9.25815 0.4457 6.83887C0.103708 6.33182 0.104211 5.66796 0.449607 5.15625L0.63906 4.88184C2.22402 2.64687 4.01546 1.5 6.00039 1.5ZM6.00039 2.5C4.37951 2.5 2.86808 3.46737 1.4584 5.45508L1.2748 5.71973C1.16078 5.88865 1.16096 6.11029 1.2748 6.2793C2.73823 8.4472 4.31064 9.5 6.00039 9.5C7.62115 9.49981 9.13278 8.53259 10.5424 6.54492L10.725 6.28027C10.839 6.11133 10.8389 5.88968 10.725 5.7207C9.26168 3.55292 7.68998 2.5002 6.00039 2.5ZM6.00039 3.5C7.3809 3.50023 8.50039 4.61943 8.50039 6C8.50039 7.38057 7.3809 8.49977 6.00039 8.5C4.61968 8.5 3.50039 7.38071 3.50039 6C3.50039 4.61929 4.61968 3.5 6.00039 3.5ZM6.00039 4.5C5.17196 4.5 4.50039 5.17157 4.50039 6C4.50039 6.82843 5.17196 7.5 6.00039 7.5C6.82862 7.49977 7.50039 6.82828 7.50039 6C7.50039 5.17172 6.82862 4.50023 6.00039 4.5Z" fill="#4285F4"/>
</svg>
