<svg width="13" height="12" viewBox="0 0 13 12" fill="none" xmlns="http://www.w3.org/2000/svg">
<path d="M11.623 4.78027C11.4247 5.11894 11.1963 5.43458 10.9453 5.72754L12.0215 6.80371L11.3145 7.51074L10.2383 6.43457C9.62991 6.95606 8.92959 7.36146 8.16992 7.62891L8.56445 9.09766L7.59863 9.35645L7.2041 7.88672C6.81523 7.95908 6.41654 8 6.01074 8C5.60462 8 5.20559 7.9592 4.81641 7.88672L4.42285 9.35645L3.45703 9.09766L3.84961 7.62988C3.09027 7.36235 2.38941 6.95701 1.78125 6.43555L0.707031 7.51074L0 6.80371L1.0752 5.72656C0.829189 5.43927 0.604694 5.13013 0.40918 4.79883L1.27051 4.29102C2.2535 5.95659 4.04125 6.99999 6.01074 7C7.98677 7 9.78005 5.94981 10.7607 4.27539L11.623 4.78027Z" fill="#4285F4"/>
</svg>
