<svg width="12" height="12" viewBox="0 0 12 12" fill="none" xmlns="http://www.w3.org/2000/svg">
<path fill-rule="evenodd" clip-rule="evenodd" d="M0 5.5V6V6.5H0.0205369C0.24709 9.24616 2.323 11.4679 5 11.917V10.9C2.87697 10.469 1.24241 8.69291 1.02469 6.5H3.51452C3.60589 8.07023 4.12597 9.55787 5 10.8235V8.69876C4.73155 8.00236 4.56672 7.26267 4.51644 6.5H5V5.5H4.51643C4.61309 4.03364 5.13319 2.65189 6.00004 1.49894C6.56362 2.24854 6.98095 3.09552 7.23038 4H8.26311C8.01013 2.95089 7.55986 1.96433 6.938 1.08784C8.57718 1.39896 9.93305 2.51023 10.584 4H11.6586C10.8349 1.66962 8.61244 0 6 0C2.85467 0 0.274612 2.42023 0.0205369 5.5H0ZM1.02469 5.5H3.51451C3.60798 3.8935 4.15017 2.37306 5.06208 1.08783C2.9089 1.49646 1.24453 3.28576 1.02469 5.5ZM10 8.5C10 9.05229 9.55229 9.5 9 9.5C8.44771 9.5 8 9.05229 8 8.5C8 7.94772 8.44771 7.5 9 7.5C9.55229 7.5 10 7.94772 10 8.5ZM8.48535 5.2259L6.48826 6.42571C6.18734 6.6065 6.00325 6.93185 6.00325 7.28291V9.71709C6.00325 10.0682 6.18734 10.3935 6.48826 10.5743L8.48535 11.7741C8.80192 11.9643 9.19755 11.9645 9.51434 11.7747L11.5173 10.5745C11.8187 10.3938 12.0033 10.0682 12.0033 9.71671V7.28328C12.0033 6.93182 11.8187 6.60615 11.5173 6.4255L9.51434 5.22531C9.19755 5.03548 8.80192 5.03571 8.48535 5.2259ZM7.00325 7.28291L9.00033 6.0831L11.0033 7.28328V9.71671L9.00033 10.9169L7.00325 9.71709V7.28291Z" fill="#4285F4"/>
</svg>
