<svg width="12" height="12" viewBox="0 0 12 12" fill="none" xmlns="http://www.w3.org/2000/svg">
<path d="M11.6481 8.13669L11.735 8.23435C12.1141 8.70685 12.0858 9.39852 11.65 9.83591L9.84532 11.6455L9.74864 11.7334C9.27903 12.1123 8.58978 12.0828 8.15392 11.6455L5.19884 8.707L5.90197 8.00779L4.99083 7.0947L4.99181 7.09372L8.85704 10.9365L8.90978 10.9756C8.9852 11.0138 9.07897 11.0008 9.14122 10.9384L10.9449 9.12888L10.982 9.07614C11.0192 9.00131 11.0071 8.90807 10.9449 8.84568L7.99474 5.91306L8.69493 5.20993L7.80529 4.31736L11.6481 8.13669ZM9.72032 8.17478L8.99279 8.90232L8.28575 8.19529L9.01329 7.46775L9.72032 8.17478ZM2.3629 0.183566C2.82484 -0.108298 3.44294 -0.0519858 3.84532 0.351535L6.8131 3.32126L7.80529 4.31736L7.10411 5.02829L7.99474 5.91306L7.99083 5.91696L3.14122 1.05857L3.08849 1.02146C3.01379 0.984166 2.92109 0.996448 2.859 1.05857L1.05431 2.86814L1.0172 2.92087C0.980151 2.99554 0.992512 3.08896 1.05431 3.15134L4.99083 7.0947L4.28966 7.80368L5.19884 8.707L5.19298 8.71286L0.350207 3.85935L0.263293 3.76169C-0.114547 3.29025 -0.0854952 2.59843 0.350207 2.16111L2.15392 0.351535L2.2506 0.263645L2.3629 0.183566ZM8.26622 6.72068L7.53868 7.44821L6.83165 6.74118L7.55822 6.01364L8.26622 6.72068ZM5.90197 4.35739L5.17443 5.08396L4.46739 4.37693L5.19493 3.64939L5.90197 4.35739ZM4.44786 2.90232L3.72032 3.62986L3.01329 2.92282L3.74083 2.19529L4.44786 2.90232Z" fill="#4285F4"/>
</svg>
