<svg width="12" height="12" viewBox="0 0 12 12" fill="none" xmlns="http://www.w3.org/2000/svg">
<path fill-rule="evenodd" clip-rule="evenodd" d="M3.9118 2.08376C4.31874 1.53682 4.49334 1.08757 4.49334 0.500645C4.49334 0.128954 4.8845 -0.112794 5.21695 0.0534315C5.85931 0.374611 6.58464 0.873134 7.24809 1.62809C7.95016 2.42699 8.39827 3.34193 8.51811 4.36491L8.53801 4.59165L8.55974 4.54863C8.68236 4.27363 8.78295 3.95014 8.85812 3.57968L8.90014 3.35178C8.97619 2.89549 9.57779 2.77827 9.81959 3.17262C11.6782 6.2038 11.3409 8.72267 9.63604 10.687C9.37232 10.9909 9.09356 11.259 8.79743 11.5071L8.32705 11.8797L8.24364 11.9373C8.10981 12.012 7.94707 12.0219 7.80305 11.9602C6.58461 11.438 5.69515 10.4767 5.18099 8.83583L5.12501 8.64764L5.06024 8.80468C4.80982 9.46703 4.75988 10.2416 4.91568 11.1259L4.9686 11.3944C5.06465 11.8363 4.57145 12.1686 4.19803 11.9135C0.79029 9.58631 0.0142839 6.804 2.35483 3.96078L2.43008 3.8642L2.62706 3.62131L3.61615 2.44493L3.86601 2.14268L3.9118 2.08376ZM5.52555 1.40627L5.39501 1.31565L5.37071 1.41938C5.24739 1.85215 5.03005 2.25604 4.71409 2.68069L4.62541 2.79368L4.49214 2.95598L3.77092 3.81249L3.35794 4.30737L2.98997 4.76815C1.46139 6.75362 1.75086 8.58143 3.76157 10.3233L3.83201 10.3826L3.82861 10.2804C3.80505 9.09556 4.1412 8.06454 4.83863 7.22964L4.99361 7.05375C5.27682 6.74875 5.78694 6.90309 5.85356 7.31394C6.17382 9.28887 6.86064 10.335 7.89271 10.8942L7.93601 10.9166L8.15521 10.7406C8.41314 10.5245 8.65443 10.2924 8.8808 10.0316C10.0813 8.64837 10.4677 6.98572 9.60586 4.92749L9.54301 4.78465L9.46925 4.96319C9.18905 5.58884 8.8028 6.06193 8.31619 6.35636L8.15028 6.44786C7.77326 6.63637 7.34649 6.30241 7.43882 5.89113C7.7562 4.47732 7.37833 3.29118 6.49692 2.2882C6.18399 1.9321 5.85143 1.64086 5.52555 1.40627Z" fill="#4285F4"/>
</svg>
