<svg width="12" height="12" viewBox="0 0 12 12" fill="none" xmlns="http://www.w3.org/2000/svg">
<path d="M10.5 1C11.3284 1 12 1.67157 12 2.5V9.5C12 10.3284 11.3284 11 10.5 11H1.5C0.671573 11 0 10.3284 0 9.5V2.5C0 1.67157 0.671573 1 1.5 1H10.5ZM1.5 2C1.22386 2 1 2.22386 1 2.5V9.5C1 9.77614 1.22386 10 1.5 10H10.5C10.7761 10 11 9.77614 11 9.5V2.5C11 2.22386 10.7761 2 10.5 2H1.5ZM3.29297 5C3.65345 4.63955 4.221 4.61198 4.61328 4.91699L4.70703 5L8.35352 8.64648L7.64648 9.35352L4 5.70703L2.35352 7.35352L1.64648 6.64648L3.29297 5Z" fill="#4285F4"/>
<path d="M8.5 3C9.32843 3 10 3.67157 10 4.5C10 5.32843 9.32843 6 8.5 6C7.67157 6 7 5.32843 7 4.5C7 3.67157 7.67157 3 8.5 3ZM8.5 4C8.22386 4 8 4.22386 8 4.5C8 4.77614 8.22386 5 8.5 5C8.77614 5 9 4.77614 9 4.5C9 4.22386 8.77614 4 8.5 4Z" fill="#4285F4"/>
</svg>
