<svg width="12" height="12" viewBox="0 0 12 12" fill="none" xmlns="http://www.w3.org/2000/svg">
<path d="M8.13584 6C8.80576 6.0001 9.52813 6.27364 9.86729 6.74512L10.5948 7.56055L11.6505 8.40723C11.7121 8.46362 11.7671 8.52741 11.8146 8.59668L11.88 8.70508C12.0287 8.98794 12.0335 9.26783 11.962 9.5166L11.9288 9.61426L11.8438 9.79785L11.7315 9.93164L10.8116 10.9404L10.1632 11.6104L10.0177 11.7441C9.60653 12.0813 9.00193 12.1002 8.6251 11.7715L7.96787 11.2812L7.44346 10.8477L4.15146 11.2363L4.03428 11.2432L3.89951 11.2461C3.7303 11.2441 3.57888 11.2206 3.39268 11.1504L3.29893 11.1113L3.12314 11.0215L0.41709 8.51465C-0.0380421 8.04249 -0.164076 7.38944 0.25791 6.77637L0.362402 6.64941C0.412663 6.59732 0.474122 6.54242 0.553808 6.4873C0.71355 6.37696 0.891417 6.29681 1.11533 6.2793L1.19834 6.2666C1.69568 6.209 2.22067 6.31555 2.66807 6.59375L2.83213 6.70703L3.62217 7.36133L3.63682 7.24902C3.737 6.65158 4.14748 6.32525 4.66514 6.28418L4.78623 6.28027L8.05186 6.00391L8.13584 6ZM4.87119 7.27637L4.76084 7.2793C4.65266 7.28956 4.61338 7.33619 4.61338 7.54395C4.61346 7.88725 4.88033 8.08786 5.13779 8.08789L6.77451 8.18262C6.93967 8.19244 6.98568 8.41188 6.83896 8.48828L6.66025 8.60645C6.57452 8.66268 6.49326 8.70787 6.41611 8.70801L3.83213 8.83203L2.19443 7.47656C1.92793 7.27662 1.54179 7.20988 1.21104 7.27637C1.17906 7.27637 1.14626 7.29299 1.12217 7.30957L1.08213 7.34375C0.94433 7.54394 1.0082 7.68683 1.13682 7.82031L3.70322 10.1963C3.78029 10.2361 3.86102 10.2452 3.92686 10.2461L4.03428 10.2432L7.59385 9.82422C7.6593 9.82489 7.90665 9.91979 7.9708 9.98633L8.60557 10.5107L9.22178 10.9688C9.27691 11.016 9.35073 11.0065 9.39658 10.959C9.45619 10.9043 9.5138 10.8483 9.57041 10.791L10.1046 10.2344L10.6007 9.69043C10.6327 9.65409 10.662 9.62124 10.6886 9.5918L10.8839 9.37988L10.9962 9.25098C10.9989 9.24493 11.0292 9.17263 10.9503 9.12695L9.90244 8.28809L9.0333 7.31348C8.80706 7.10266 8.42551 7.00008 8.13584 7L4.87119 7.27637ZM7.504 0C7.82159 0 8.23053 0.258221 8.7999 0.810547L9.05381 1.06543L9.3292 1.35645L9.62607 1.68555L9.94639 2.05273L10.4728 2.67578C10.5344 2.74987 10.5974 2.82592 10.6612 2.90332C10.8511 3.13354 10.9668 3.41427 10.9962 3.70898L11.004 3.85742V6H10.004V4.5H8.504C7.7244 4.49992 7.08355 3.9051 7.01084 3.14453L7.004 3V1H2.504C2.25861 1.00008 2.05414 1.17696 2.01182 1.41016L2.004 1.5V5.5H1.004V1.5C1.004 0.720381 1.59893 0.0796252 2.35947 0.00683594L2.504 0H7.504ZM8.004 3C8.004 3.24541 8.18099 3.44979 8.41416 3.49219L8.504 3.5H9.85752L9.56553 3.15039L9.25791 2.79102L8.83506 2.30859L8.46006 1.89746L8.13877 1.56055L8.004 1.42676V3Z" fill="#4285F4"/>
</svg>
