<svg width="12" height="12" viewBox="0 0 12 12" fill="none" xmlns="http://www.w3.org/2000/svg">
<path d="M11 0C11.5523 0 12 0.447715 12 1V3C12 3.55228 11.5523 4 11 4H2V6C2 6.24546 2.17691 6.44985 2.41016 6.49219L2.5 6.5H8.58691C8.79297 5.91766 9.34707 5.5 10 5.5C10.8284 5.5 11.5 6.17157 11.5 7C11.5 7.82843 10.8284 8.5 10 8.5C9.34707 8.5 8.79297 8.08234 8.58691 7.5H2.5C2.3245 7.5 2.15653 7.46847 2 7.41309V9.5C2 9.74546 2.17691 9.94985 2.41016 9.99219L2.5 10H8.58691C8.79297 9.41766 9.34707 9 10 9C10.8284 9 11.5 9.67157 11.5 10.5C11.5 11.3284 10.8284 12 10 12C9.34707 12 8.79297 11.5823 8.58691 11H2.5C1.72033 11 1.07955 10.4052 1.00684 9.64453L1 9.5V4C0.447715 4 0 3.55228 0 3V1C0 0.447715 0.447715 0 1 0H11ZM10 10C9.72386 10 9.5 10.2239 9.5 10.5C9.5 10.7761 9.72386 11 10 11C10.2761 11 10.5 10.7761 10.5 10.5C10.5 10.2239 10.2761 10 10 10ZM10 6.5C9.72386 6.5 9.5 6.72386 9.5 7C9.5 7.27614 9.72386 7.5 10 7.5C10.2761 7.5 10.5 7.27614 10.5 7C10.5 6.72386 10.2761 6.5 10 6.5ZM1 3H11V1H1V3Z" fill="#4285F4"/>
</svg>
