<svg width="12" height="12" viewBox="0 0 12 12" fill="none" xmlns="http://www.w3.org/2000/svg">
<path d="M1.5 0C2.32843 0 3 0.671573 3 1.5C3 2.15281 2.58218 2.70597 2 2.91211V4C2 4.24546 2.17691 4.44985 2.41016 4.49219L2.5 4.5H4V4C4 3.44772 4.44772 3 5 3H11C11.5523 3 12 3.44772 12 4V6C12 6.55228 11.5523 7 11 7H5C4.44772 7 4 6.55228 4 6V5.5H2.5C2.3245 5.5 2.15653 5.46847 2 5.41309V9.5C2 9.74546 2.17691 9.94985 2.41016 9.99219L2.5 10H4V9C4 8.44772 4.44772 8 5 8H11C11.5523 8 12 8.44772 12 9V11C12 11.5523 11.5523 12 11 12H5C4.44772 12 4 11.5523 4 11H2.5C1.72033 11 1.07955 10.4052 1.00684 9.64453L1 9.5V2.91211C0.417821 2.70597 0 2.15281 0 1.5C0 0.671573 0.671573 0 1.5 0ZM5 11H11V9H5V11ZM5 6H11V4H5V6ZM1.5 1C1.22386 1 1 1.22386 1 1.5C1 1.77614 1.22386 2 1.5 2C1.77614 2 2 1.77614 2 1.5C2 1.22386 1.77614 1 1.5 1Z" fill="#4285F4"/>
</svg>
