<svg width="12" height="12" viewBox="0 0 12 12" fill="none" xmlns="http://www.w3.org/2000/svg">
<g clip-path="url(#clip0_1642_8036)">
<path d="M10 0C11.1046 0 12 0.89543 12 2V10C12 11.1046 11.1046 12 10 12H2C0.89543 12 0 11.1046 0 10V2C0 0.89543 0.89543 0 2 0H10ZM2 1C1.48716 1 1.0646 1.38645 1.00684 1.88379L1 2V10C1 10.5128 1.38645 10.9354 1.88379 10.9932L2 11H10C10.5128 11 10.9354 10.6135 10.9932 10.1162L11 10V2C11 1.48716 10.6135 1.0646 10.1162 1.00684L10 1H2ZM5.57129 2.70703C5.74531 2.35801 6.2343 2.33499 6.4502 2.6377L6.49219 2.70703L9.48047 8.71289C9.60344 8.96005 9.49667 9.25752 9.24219 9.37695C9.01338 9.48422 8.74312 9.41128 8.60156 9.21582L8.55859 9.14551L7.56543 7.14941H4.49707L3.50391 9.14551C3.39323 9.36793 3.13462 9.47431 2.89844 9.40625L2.82129 9.37695C2.5924 9.26953 2.48291 9.01835 2.55273 8.78906L2.58301 8.71289L5.57129 2.70703ZM4.99316 6.14941H7.06738L6.03125 4.06543L4.99316 6.14941Z" fill="#4285F4"/>
</g>
<defs>
<clipPath id="clip0_1642_8036">
<rect width="12" height="12" fill="white"/>
</clipPath>
</defs>
</svg>
