<svg width="12" height="13" viewBox="0 0 12 13" fill="none" xmlns="http://www.w3.org/2000/svg">
<path d="M5.3291 0.158272C5.7513 -0.0527575 6.2487 -0.0527575 6.6709 0.158272L10.6709 2.15827C11.1789 2.4123 11.4998 2.93208 11.5 3.50007V8.51374C11.5 9.0818 11.1789 9.6014 10.6709 9.85554L6.6709 11.8555C6.24861 12.0667 5.75139 12.0667 5.3291 11.8555L1.3291 9.85554C0.821086 9.6014 0.5 9.0818 0.5 8.51374V3.50007C0.500164 2.93208 0.821055 2.4123 1.3291 2.15827L5.3291 0.158272ZM6.22363 1.0528C6.08296 0.982537 5.91704 0.982537 5.77637 1.0528L1.77637 3.0528C1.6071 3.13743 1.50016 3.31085 1.5 3.50007V8.51374C1.5 8.70302 1.60714 8.87626 1.77637 8.96101L5.77637 10.961C5.91713 11.0314 6.08287 11.0314 6.22363 10.961L10.2236 8.96101C10.3929 8.87626 10.5 8.70302 10.5 8.51374V3.50007C10.4998 3.31085 10.3929 3.13743 10.2236 3.0528L6.22363 1.0528ZM6 4.00495C7.10453 4.00495 7.99993 4.90044 8 6.00495C8 7.10952 7.10457 8.00495 6 8.00495C4.89543 8.00495 4 7.10952 4 6.00495C4.00007 4.90044 4.89547 4.00495 6 4.00495ZM6 5.00495C5.44776 5.00495 5.00007 5.45272 5 6.00495C5 6.55724 5.44772 7.00495 6 7.00495C6.55228 7.00495 7 6.55724 7 6.00495C6.99993 5.45272 6.55224 5.00495 6 5.00495Z" fill="#4285F4"/>
</svg>
