<svg width="12" height="12" viewBox="0 0 12 12" fill="none" xmlns="http://www.w3.org/2000/svg">
<path d="M10.2988 0.00683594C10.7099 0.0703101 10.8968 0.587469 10.586 0.898438L9.55568 1.92871V2.44434H10.0703L11.1016 1.41406L11.166 1.3584C11.5016 1.11259 12 1.34641 12 1.78613C12 4.00322 10.2414 5.80801 8.04298 5.88477L2.68654 11.2422C2.15376 11.7749 1.29058 11.7749 0.757826 11.2422C0.225075 10.7094 0.225111 9.84625 0.757826 9.31348L6.11427 3.95605C6.19151 1.75813 7.99711 0 10.2139 0L10.2988 0.00683594ZM7.11134 4.16406C7.11129 4.29836 7.05791 4.42745 6.9629 4.52246L1.46486 10.0205C1.32267 10.1628 1.32263 10.3929 1.46486 10.5352C1.60709 10.6774 1.83726 10.6773 1.97951 10.5352L7.47755 5.03711C7.57254 4.94212 7.70163 4.88872 7.83595 4.88867H7.89747C9.05115 4.88861 10.0553 4.25769 10.5899 3.32324C10.4805 3.40043 10.3505 3.44426 10.2149 3.44434H9.13185C8.8136 3.44428 8.55574 3.18641 8.55568 2.86816V1.78516C8.55575 1.64947 8.59852 1.51854 8.67579 1.40918C7.74152 1.94382 7.11141 2.94899 7.11134 4.10254V4.16406Z" fill="#4285F4"/>
<path d="M7.47999 7.48006C8.01275 6.9473 8.87593 6.94734 9.40871 7.48006L11.2427 9.31306C11.7754 9.84584 11.7754 10.71 11.2427 11.2428C10.71 11.7755 9.84578 11.7754 9.313 11.2428L7.47999 9.40877C6.94728 8.87599 6.94724 8.01281 7.47999 7.48006ZM8.70167 8.18709C8.55942 8.0449 8.32925 8.04486 8.18703 8.18709C8.0448 8.32931 8.04483 8.55949 8.18703 8.70174L10.02 10.5357C10.1623 10.6779 10.3934 10.6779 10.5357 10.5357C10.6779 10.3935 10.6778 10.1623 10.5357 10.0201L8.70167 8.18709Z" fill="#4285F4"/>
<path d="M8.18701 7.48004L7.47998 8.18707L6.86865 7.57574L7.57568 6.86871L8.18701 7.48004Z" fill="#4285F4"/>
<path d="M1.09673 0.125969C1.28828 -0.00789959 1.54609 -0.0142316 1.74614 0.119133L4.37017 1.86816C4.66402 2.06434 4.71437 2.47675 4.47563 2.7373L4.14849 3.09374L3.46099 2.46386L1.47954 1.14257L1.14263 1.47949L2.4102 3.38183L2.84282 2.95019L2.93267 2.87695C3.15631 2.72907 3.46021 2.75341 3.65727 2.95019L5.13091 4.42382L4.42388 5.13085L3.25005 3.95702L2.75298 4.45409C2.49578 4.71129 2.06704 4.66884 1.86528 4.3662L0.119189 1.74609C-0.033214 1.51748 -0.00379215 1.21283 0.190478 1.01855L1.0186 0.190423L1.09673 0.125969Z" fill="#4285F4"/>
</svg>
