<svg width="12" height="12" viewBox="0 0 12 12" fill="none" xmlns="http://www.w3.org/2000/svg">
<path d="M6 0C7.65685 0 9 1.34315 9 3H10V4C10.5523 4 11 3.55228 11 3H12C12 4.10457 11.1046 5 10 5V6H12V7H10V8C10 8.01663 9.99825 8.03322 9.99805 8.0498C11.1401 8.2807 12 9.28984 12 10.5H11C11 9.79591 10.5146 9.2064 9.86035 9.04492C9.40073 10.7471 7.84746 12 6 12C4.15245 12 2.59821 10.7472 2.13867 9.04492C1.48492 9.20673 1 9.79624 1 10.5H0C0 9.29018 0.859369 8.28106 2.00098 8.0498C2.00077 8.03322 2 8.01663 2 8V7H0V6H2V5C0.89543 5 0 4.10457 0 3H1C1 3.55228 1.44772 4 2 4V3H3C3 1.34315 4.34315 0 6 0ZM3 8C3 9.4864 4.08128 10.7189 5.5 10.957V6H6.5V10.958C7.91882 10.7199 9 9.48647 9 8V4H3V8ZM6 1C4.89543 1 4 1.89543 4 3H8C8 1.89543 7.10457 1 6 1Z" fill="#4285F4"/>
</svg>
