<svg width="12" height="12" viewBox="0 0 12 12" fill="none" xmlns="http://www.w3.org/2000/svg">
<path d="M6.28882 0.000976562C6.38382 0.00193689 6.47828 0.00393219 6.57104 0.00585938L7.11401 0.0234375C9.49607 0.128551 10.9997 0.594129 10.9998 1.5V4.5C10.9998 5.40589 9.49609 5.87145 7.11401 5.97656L6.57104 5.99414L5.99976 6L5.42847 5.99414L4.8855 5.97656C3.66452 5.92267 2.67486 5.77169 1.99976 5.51758V7.5L2.00269 7.43945C2.00632 7.42938 2.01454 7.42998 2.03198 7.43848L2.06519 7.45703C2.22257 7.54833 2.48316 7.6409 2.8269 7.7207C3.59624 7.89922 4.70162 7.99999 5.99976 8V9L5.42847 8.99414L4.8855 8.97754C3.66452 8.92365 2.67502 8.77179 1.99976 8.51758V10.4609C2.0007 10.4312 2.00626 10.426 2.03198 10.4385L2.06519 10.457C2.22253 10.5484 2.48311 10.6399 2.8269 10.7197C3.59625 10.8983 4.70158 11 5.99976 11V12L5.42847 11.9941L4.8855 11.9766C2.59178 11.8753 1.11202 11.4397 1.00562 10.5986L0.999756 10.5V1.5C0.99979 0.594159 2.50358 0.128572 4.8855 0.0234375L5.42847 0.00585938C5.61423 0.00200015 5.80512 1.66981e-06 5.99976 0L6.28882 0.000976562ZM11.2976 9.47949C11.4829 9.4796 11.6606 9.55363 11.7917 9.68457C12.0378 9.93058 12.0627 10.3144 11.866 10.5879L11.7917 10.6748L10.4666 12L9.75952 11.293L10.574 10.4795H6.78003V9.47949H11.2976ZM9.01733 6.85352L8.20288 7.66602L11.9968 7.66699V8.66699H7.48022C7.29467 8.66697 7.11635 8.59308 6.98511 8.46191C6.7392 8.21596 6.71429 7.83211 6.91089 7.55859L6.98511 7.47168L8.3103 6.14648L9.01733 6.85352ZM9.99878 2.51758C9.32358 2.77143 8.33451 2.92271 7.11401 2.97656L6.57104 2.99414L5.99976 3L5.42847 2.99414L4.8855 2.97656C3.66448 2.92267 2.67493 2.77165 1.99976 2.51758V4.5C1.99975 4.43713 1.9975 4.42169 2.03198 4.43848L2.06519 4.45703C2.22253 4.54835 2.48311 4.63991 2.8269 4.71973C3.59625 4.89826 4.70158 4.99999 5.99976 5C7.29791 5 8.40323 4.89824 9.17261 4.71973C9.45879 4.65329 9.68724 4.57882 9.84644 4.50293L9.93433 4.45703C9.98583 4.42714 9.99643 4.42185 9.99878 4.45312V2.51758ZM5.99976 1C4.70158 1.00001 3.59625 1.10174 2.8269 1.28027C2.59779 1.33347 2.40568 1.39195 2.25659 1.45215L2.14722 1.49902C2.28042 1.56319 2.452 1.62312 2.66187 1.67871L2.8269 1.71973C3.59625 1.89826 4.70158 1.99999 5.99976 2C7.29791 2 8.40323 1.89824 9.17261 1.71973C9.40172 1.66654 9.59382 1.60804 9.74292 1.54785L9.85132 1.49902C9.71908 1.43686 9.54753 1.37688 9.33765 1.32129L9.17261 1.28027C8.40323 1.10176 7.29791 1 5.99976 1Z" fill="#4285F4"/>
</svg>
