<svg width="12" height="12" viewBox="0 0 12 12" fill="none" xmlns="http://www.w3.org/2000/svg">
<path d="M6 1C7.08243 1 8.09897 1.26449 8.97754 1.72559L8.27441 2.49219C7.59289 2.1781 6.82036 2 6 2C3.22851 2 1 4.02591 1 6.5C1 8.97409 3.22851 11 6 11C6.14179 11 6.32657 10.9868 6.55176 10.959C6.80171 10.9281 6.99042 10.7157 6.99121 10.4639L6.99707 8.49902C6.99848 7.73545 7.5732 7.09753 8.3584 7.00977L8.50195 7.00391L10.498 7.01172C10.7524 7.01267 10.9668 6.82136 10.9941 6.60059L11 6.5127L10.9951 6.29492C10.9458 5.30998 10.5424 4.4055 9.89648 3.68262L10.5752 2.94238C11.4627 3.89999 12 5.14015 12 6.5L11.999 6.54492L11.9893 6.69141C11.8989 7.44367 11.2575 8.01361 10.4941 8.01074L8.52441 8.00293L8.43848 8.00586C8.18873 8.03425 7.99753 8.2475 7.99707 8.50195L7.99121 10.4668C7.9889 11.2223 7.4247 11.8585 6.6748 11.9512C6.41173 11.9837 6.1876 12 6 12C2.69636 12 0 9.54876 0 6.5C0 3.45124 2.69636 1 6 1ZM4.5 8C4.77614 8 5 8.22386 5 8.5C5 8.77614 4.77614 9 4.5 9C4.22386 9 4 8.77614 4 8.5C4 8.22386 4.22386 8 4.5 8ZM11.3682 1.33789L5.86816 7.33789L5.13184 6.66211L10.6318 0.662109L11.3682 1.33789ZM2.5 6C2.77614 6 3 6.22386 3 6.5C3 6.77614 2.77614 7 2.5 7C2.22386 7 2 6.77614 2 6.5C2 6.22386 2.22386 6 2.5 6ZM4.5 4C4.77614 4 5 4.22386 5 4.5C5 4.77614 4.77614 5 4.5 5C4.22386 5 4 4.77614 4 4.5C4 4.22386 4.22386 4 4.5 4Z" fill="#4285F4"/>
</svg>
