<svg width="12" height="12" viewBox="0 0 12 12" fill="none" xmlns="http://www.w3.org/2000/svg">
<path d="M7.58594 0C7.98371 4.00259e-05 8.36522 0.158184 8.64648 0.439453L10.5605 2.35352C10.8418 2.63478 11 3.01629 11 3.41406V10.5C11 11.3284 10.3284 12 9.5 12H2.5C1.67157 12 1 11.3284 1 10.5V1.5C1 0.671573 1.67157 0 2.5 0H7.58594ZM2.5 1C2.22386 1 2 1.22386 2 1.5V10.5C2 10.7761 2.22386 11 2.5 11H9.5C9.77614 11 10 10.7761 10 10.5V4H8.5C7.72033 4 7.07955 3.40515 7.00684 2.64453L7 2.5V1H2.5ZM8 10H3V9H8V10ZM6 8H3V7H6V8ZM8 2.5C8 2.74546 8.17691 2.94985 8.41016 2.99219L8.5 3H9.79297L8 1.20703V2.5Z" fill="#4285F4"/>
</svg>
