<svg width="12" height="12" viewBox="0 0 12 12" fill="none" xmlns="http://www.w3.org/2000/svg">
<path d="M10.4999 0C11.3282 0.000128836 11.9999 0.671652 11.9999 1.5V4.72266C11.9999 5.11928 11.8422 5.50015 11.5624 5.78125L5.8192 11.5518C5.23525 12.1382 4.28634 12.1407 3.69908 11.5576L0.459823 8.33984C-0.128271 7.75526 -0.130415 6.80409 0.45494 6.2168L6.21666 0.44043C6.49797 0.158436 6.88085 0.00010389 7.27916 0H10.4999ZM7.27916 1C7.14654 1.0001 7.01836 1.05263 6.92467 1.14648L1.16295 6.92285C0.968054 7.1186 0.969022 7.43606 1.1649 7.63086L4.40318 10.8477C4.59888 11.0421 4.91552 11.0411 5.11021 10.8457L10.8544 5.0752C10.9474 4.98153 10.9999 4.85467 10.9999 4.72266V1.5C10.9999 1.22394 10.7759 1.00013 10.4999 1H7.27916ZM7.74986 2.5C8.71636 2.5 9.49986 3.2835 9.49986 4.25C9.49986 5.2165 8.71636 6 7.74986 6C6.78346 5.99989 5.99986 5.21643 5.99986 4.25C5.99986 3.28357 6.78346 2.50011 7.74986 2.5ZM7.74986 3.5C7.33575 3.50011 6.99986 3.83586 6.99986 4.25C6.99986 4.66414 7.33575 4.99989 7.74986 5C8.16408 5 8.49986 4.66421 8.49986 4.25C8.49986 3.83579 8.16408 3.5 7.74986 3.5Z" fill="#4285F4"/>
</svg>
