<svg width="12" height="13" viewBox="0 0 12 13" fill="none" xmlns="http://www.w3.org/2000/svg">
<path fill-rule="evenodd" clip-rule="evenodd" d="M5.7818 0.00481219L5.99995 0L6.21726 0.00478123C8.64776 0.112723 10.0156 2.03808 10.1001 4.73827L10.104 5.012L10.519 6.0617L10.6291 6.35793L10.7596 6.73487L10.8346 6.9702C10.874 7.09794 10.9106 7.22316 10.9443 7.34564L11.0362 7.70458C11.3663 9.1054 11.2328 10.0758 10.1808 10.2045C10.1336 10.2102 10.0886 10.2143 10.0456 10.2166L10.025 10.216L10.0448 10.25C10.1825 10.5236 10.1992 10.8433 10.0261 11.2091L9.95221 11.3485C9.60984 11.9313 8.5259 12.0755 7.23179 12.0232L6.79337 11.9989L6.34376 11.9619L6 11.926L5.64599 11.9629L5.17543 12.001C3.7802 12.0956 2.55547 12.002 2.1123 11.4418L2.04848 11.3487C1.79908 10.9244 1.80082 10.5581 1.95556 10.2504L1.974 10.216L1.95429 10.2166L1.81899 10.2044C0.767134 10.0759 0.63368 9.10544 0.963824 7.70458L1.05575 7.34563C1.08944 7.22316 1.12609 7.09793 1.16542 6.97019C1.21532 6.80812 1.26798 6.64877 1.32555 6.48496L1.42772 6.20297L1.54656 5.89136L1.895 5.012L1.89938 4.73488C1.98123 2.04747 3.34317 0.113353 5.7818 0.00481219ZM9.10191 5.19849C9.15788 2.8776 8.20138 1.00012 6 1C3.77383 1.00012 2.839 2.91529 2.89813 5.19847L2.49495 6.21177L2.33279 6.63879C2.25671 6.84655 2.18734 7.04946 2.12114 7.26446C1.69977 8.63282 1.8363 9.19911 1.94023 9.21181C2.0677 9.22735 2.333 8.88877 2.53699 8.59571L2.67537 8.39069L2.80848 8.18171C2.80848 8.79395 3.12085 9.5929 3.79672 10.1698L3.6475 10.2192L3.47347 10.2848L3.29337 10.3645C3.02806 10.4936 2.80556 10.6633 2.9106 10.842C2.97128 10.9453 3.42614 10.9883 3.97815 10.9979L4.35729 10.9996L4.74565 10.9931L5.12369 10.9802L5.47185 10.9627L5.77056 10.9423L6.00027 10.9208L6.22999 10.9423L6.5287 10.9627L7.06336 10.9873L7.44901 10.9972L7.8352 10.9999L8.20239 10.9934C8.67062 10.978 9.03601 10.9338 9.08995 10.842C9.18327 10.6831 9.0176 10.5313 8.79321 10.4089L8.61703 10.3229L8.4376 10.25L8.20343 10.1697C8.87921 9.59278 9.19152 8.79392 9.19152 8.18171L9.22791 8.2402L9.38978 8.48872L9.542 8.70696C9.73118 8.96789 9.94825 9.22541 10.0598 9.21181C10.1637 9.19909 10.3002 8.63282 9.8789 7.26446C9.81288 7.05009 9.74351 6.84722 9.66737 6.63929L9.50503 6.21178L9.10191 5.19849Z" fill="#4285F4"/>
</svg>
