<svg width="12" height="12" viewBox="0 0 12 12" fill="none" xmlns="http://www.w3.org/2000/svg">
<path d="M5.19434 0.419926C5.68568 0.107258 6.31432 0.107258 6.80566 0.419926L11.3057 3.28321C11.7382 3.55848 11.9999 4.03614 12 4.54883V10.5C12 11.3284 11.3284 12 10.5 12H1.5C0.671573 12 0 11.3284 0 10.5V4.54883C0.000128237 4.03614 0.261787 3.55848 0.694336 3.28321L5.19434 0.419926ZM6.26855 1.26368C6.10478 1.15946 5.89522 1.15946 5.73145 1.26368L1.23145 4.12696C1.08733 4.21867 1.00013 4.37803 1 4.54883V10.5C1 10.7761 1.22386 11 1.5 11H4V7.75C4.00007 7.37037 4.2824 7.0565 4.64844 7.00684L4.75 7H7.25C7.6297 7 7.9435 7.28237 7.99316 7.64844L8 7.75V11H10.5C10.7761 11 11 10.7761 11 10.5V4.54883C10.9999 4.37803 10.9127 4.21867 10.7686 4.12696L6.26855 1.26368ZM5 11H7V8H5V11Z" fill="#4285F4"/>
</svg>
