<svg width="12" height="12" viewBox="0 0 12 12" fill="none" xmlns="http://www.w3.org/2000/svg">
<path d="M6 0C9.31371 0 12 2.68629 12 6C12 9.31371 9.31371 12 6 12C2.68629 12 0 9.31371 0 6C0 2.68629 2.68629 0 6 0ZM6 1C3.23858 1 1 3.23858 1 6C1 8.76142 3.23858 11 6 11C8.76142 11 11 8.76142 11 6C11 3.23858 8.76142 1 6 1ZM6 7.16504C7.00941 7.16504 7.95079 7.59614 8.61035 8.33398L7.86426 9L7.73145 8.86133C7.27072 8.41869 6.65611 8.16504 6 8.16504C5.2838 8.16505 4.61693 8.46749 4.14551 8.98828L3.4043 8.31738L3.5498 8.16602C4.19736 7.53089 5.06987 7.16505 6 7.16504ZM5 5.5H3.5V4H5V5.5ZM8.5 5.5H7V4H8.5V5.5Z" fill="#4285F4"/>
</svg>
