<svg width="12" height="12" viewBox="0 0 12 12" fill="none" xmlns="http://www.w3.org/2000/svg">
<path d="M6 0C8.20914 0 10 1.79086 10 4C10 5.1998 9.47039 6.27465 8.63379 7.00781C9.9916 7.09207 11.1518 8.04465 11.4854 9.37891L11.6748 10.1357C11.8756 10.9391 11.3871 11.7538 10.584 11.9551C10.4652 11.9848 10.3422 12 10.2197 12H1.78125C0.952823 12 0.28125 11.3284 0.28125 10.5C0.28125 10.3774 0.296427 10.2547 0.326172 10.1357L0.515625 9.37891C0.849143 8.04504 2.00789 7.09247 3.36523 7.00781C2.52896 6.27466 2 5.19953 2 4C2 1.79086 3.79086 0 6 0ZM3.5625 8C2.58042 8 1.72364 8.66839 1.48535 9.62109L1.2959 10.3789C1.28602 10.4185 1.28125 10.4592 1.28125 10.5C1.28125 10.7761 1.50511 11 1.78125 11H10.2197C10.2604 11 10.3014 10.9952 10.3408 10.9854C10.6083 10.9182 10.7718 10.6465 10.7051 10.3789L10.5156 9.62109C10.2774 8.66848 9.4204 8.00021 8.43848 8H3.5625ZM8.17285 8.7373C7.73126 9.51146 6.90801 10 6 10C5.18448 10 4.43612 9.60582 3.97168 8.96191L3.87012 8.80957L4.72168 8.28516C4.99333 8.72618 5.47273 9 6 9C6.49572 9 6.94891 8.75796 7.22656 8.36426L7.30469 8.24121L8.17285 8.7373ZM6 1C4.34315 1 3 2.34315 3 4C3 5.65685 4.34315 7 6 7C7.65685 7 9 5.65685 9 4C9 2.34315 7.65685 1 6 1Z" fill="#4285F4"/>
</svg>
