<svg width="12" height="12" viewBox="0 0 12 12" fill="none" xmlns="http://www.w3.org/2000/svg">
<path d="M11.3534 10.6465L10.6463 11.3535L9.11998 9.82715C8.14368 10.6029 7.10606 10.9999 6.00084 11C3.82014 10.9998 1.88929 9.47013 0.198106 6.49316C0.0288111 6.19099 0.0279212 5.82222 0.200059 5.51172L0.37584 5.20801C0.935547 4.26183 1.52361 3.47401 2.13756 2.84473L0.646348 1.35352L1.35338 0.646484L11.3534 10.6465ZM2.84264 3.5498C2.29497 4.11394 1.75956 4.83309 1.23912 5.71289L1.07018 6.00391C2.59925 8.69548 4.2459 9.99984 6.00084 10C6.82958 9.99985 7.63141 9.70683 8.40904 9.11621L7.01451 7.72168C6.71742 7.89776 6.37141 7.99989 6.00084 8C4.89634 7.99992 4.00084 7.10452 4.00084 6C4.00084 5.62919 4.10118 5.28186 4.27721 4.98438L2.84264 3.5498ZM6.00084 1C8.18141 1.00029 10.1115 2.53004 11.8026 5.50684C11.972 5.80907 11.9729 6.17772 11.8006 6.48828L11.6249 6.79199C11.2675 7.3961 10.8966 7.93442 10.5174 8.41016L9.8065 7.69922C10.129 7.28503 10.4489 6.81568 10.7616 6.28711L10.9305 5.99609C9.40155 3.30471 7.75566 2.00031 6.00084 2C5.47668 2.00005 4.962 2.11586 4.45787 2.35059L3.71373 1.60645C4.44284 1.20342 5.20541 1.00006 6.00084 1ZM5.03697 5.74414C5.01527 5.82605 5.00084 5.91127 5.00084 6C5.00084 6.55224 5.44862 6.99992 6.00084 7C6.08933 6.99995 6.17408 6.98454 6.25572 6.96289L5.03697 5.74414Z" fill="#4285F4"/>
</svg>
