<svg width="12" height="12" viewBox="0 0 12 12" fill="none" xmlns="http://www.w3.org/2000/svg">
<path d="M11.3539 10.6465L10.6459 11.3535L8.89297 9.60059C7.98024 10.1952 7.01714 10.4999 6.00039 10.5C3.93404 10.5 2.07882 9.25813 0.4457 6.83887C0.103708 6.33182 0.104211 5.66796 0.449607 5.15625L0.63906 4.88184C1.16939 4.13403 1.72403 3.50959 2.30019 3.00781L0.645896 1.35352L1.3539 0.646484L11.3539 10.6465ZM3.0082 3.71582C2.47847 4.16724 1.96159 4.74556 1.4584 5.45508L1.2748 5.71973C1.16078 5.88865 1.16096 6.11029 1.2748 6.2793C2.73822 8.44717 4.31065 9.5 6.00039 9.5C6.74684 9.4999 7.46888 9.29292 8.16933 8.87695L7.37636 8.08398C6.98176 8.3458 6.50958 8.49989 6.00039 8.5C4.61968 8.5 3.50039 7.38071 3.50039 6C3.50039 5.4907 3.65381 5.01801 3.91543 4.62305L3.0082 3.71582ZM6.00039 1.5C8.06656 1.50023 9.9211 2.74198 11.5541 5.16113C11.8961 5.66807 11.8963 6.33206 11.5512 6.84375L11.3607 7.11816C11.0535 7.55145 10.7371 7.94288 10.4145 8.29395L9.7084 7.58789C9.99001 7.27836 10.2685 6.93111 10.5424 6.54492L10.725 6.28027C10.8389 6.11134 10.8389 5.88966 10.725 5.7207C9.26171 3.55296 7.68995 2.50024 6.00039 2.5C5.59459 2.5 5.19531 2.56053 4.80312 2.68262L4.02578 1.90527C4.66103 1.63737 5.319 1.5 6.00039 1.5ZM4.64687 5.35449C4.55322 5.54997 4.50039 5.76862 4.50039 6C4.50039 6.82843 5.17196 7.5 6.00039 7.5C6.23144 7.49992 6.44887 7.44515 6.64394 7.35156L4.64687 5.35449ZM6.00039 3.5C7.38086 3.50029 8.50039 4.61946 8.50039 6C8.50039 6.11949 8.48828 6.23654 8.47207 6.35156L5.64785 3.52734C5.76304 3.51108 5.88071 3.5 6.00039 3.5Z" fill="#4285F4"/>
</svg>
