<svg width="12" height="12" viewBox="0 0 12 12" fill="none" xmlns="http://www.w3.org/2000/svg">
<path fill-rule="evenodd" clip-rule="evenodd" d="M2 0H10C10.5523 0 11 0.447715 11 1V10.7306C11 10.8705 10.9706 11.0089 10.9138 11.1368C10.6895 11.6414 10.0985 11.8687 9.59386 11.6444L6 10.0472L2.40614 11.6444C2.27828 11.7013 2.13992 11.7306 2 11.7306C1.44772 11.7306 1 11.2829 1 10.7306V1C1 0.447715 1.44772 0 2 0ZM10 1H2V10.7306L5.59386 9.13335C5.85243 9.01843 6.14757 9.01843 6.40614 9.13335L10 10.7306V1Z" fill="#4285F4"/>
</svg>
