<svg width="12" height="12" viewBox="0 0 12 12" fill="none" xmlns="http://www.w3.org/2000/svg">
<path fill-rule="evenodd" clip-rule="evenodd" d="M3.75299 3.22499L5.4787 0.802353C5.71893 0.46492 6.18722 0.386124 6.52465 0.626357C6.59271 0.674811 6.65219 0.734295 6.70065 0.802353L8.42599 3.22599L11.3566 4.04206C11.7224 4.14388 11.9491 4.49985 11.8987 4.86584L11.878 4.96572C11.8505 5.06471 11.8029 5.15698 11.7382 5.23681L9.88299 7.52599L9.97693 10.428C9.98916 10.8075 9.71725 11.1302 9.35297 11.1916L9.25147 11.2017C9.16051 11.2047 9.06977 11.191 8.9837 11.1615L6.08899 10.167L3.19564 11.1615C2.83654 11.2848 2.44811 11.1199 2.28223 10.7898L2.24269 10.6957C2.21313 10.6097 2.19948 10.5189 2.20241 10.428L2.29499 7.52399L0.441151 5.23681C0.204063 4.94426 0.223382 4.52734 0.47063 4.25801L0.551613 4.18191C0.631442 4.11722 0.723713 4.06962 0.822701 4.04206L3.75299 3.22499ZM6.08899 1.66799L4.3622 4.09481L1.45799 4.90299L3.30738 7.18526L3.21299 10.097L6.08967 9.11016L8.96499 10.097L8.87196 7.18526L10.721 4.90299L7.81714 4.09481L6.08899 1.66799Z" fill="#4285F4"/>
</svg>
