<svg width="12" height="12" viewBox="0 0 12 12" fill="none" xmlns="http://www.w3.org/2000/svg">
<path d="M5.58301 0C6.39188 0 7.04786 0.655999 7.04785 1.46191L7.04199 1.77832C7.03426 1.98664 7.01918 2.18972 6.99707 2.38867C6.94612 2.84718 6.83563 3.38359 6.66699 4H9.38184C10.7625 4 11.8818 5.11929 11.8818 6.5C11.8818 6.70908 11.8556 6.91756 11.8037 7.12012L11.0361 10.1201C10.7529 11.2263 9.75609 11.9999 8.61426 12H1.5C0.671573 12 0 11.3284 0 10.5V5.5C0 4.67157 0.671573 4 1.5 4H2.28125L2.42285 3.84668C2.78824 3.43567 3.10494 3.01465 3.37207 2.58301L3.5625 2.25684C3.77175 1.88017 3.92833 1.5161 4.03125 1.16406C4.23277 0.474488 4.86461 0.00014321 5.58301 0ZM5.58301 1C5.30886 1.00014 5.06715 1.18116 4.99023 1.44434C4.86566 1.87046 4.68168 2.30364 4.4375 2.74316C4.06044 3.42186 3.57978 4.07206 3 4.69629V11H8.61426C9.29933 10.9999 9.89747 10.5357 10.0674 9.87207L10.835 6.87207C10.8661 6.75054 10.8818 6.62545 10.8818 6.5C10.8818 5.67157 10.2103 5 9.38184 5H6.66504C6.5771 4.99983 6.48916 4.9879 6.4043 4.96484C5.87158 4.81983 5.55698 4.27049 5.70215 3.7373C5.85814 3.16719 5.9583 2.67986 6.00293 2.27832C6.03206 2.01613 6.04708 1.74471 6.04785 1.46973L6.04004 1.38477C6.00056 1.16425 5.81097 1 5.58301 1ZM1.5 5C1.22386 5 1 5.22386 1 5.5V10.5C1 10.7761 1.22386 11 1.5 11H2V5H1.5Z" fill="#4285F4"/>
</svg>
