<svg width="12" height="12" viewBox="0 0 12 12" fill="none" xmlns="http://www.w3.org/2000/svg">
<path d="M10 1C10.5523 1 11 1.67157 11 2.5V5C11.2761 5 11.5 5.22386 11.5 5.5V6.5C11.5 6.77614 11.2761 7 11 7V9.5C11 10.3284 10.5523 11 10 11H2C1.44772 11 1 10.3284 1 9.5V7C0.723858 7 0.5 6.77614 0.5 6.5V5.5C0.5 5.22386 0.723858 5 1 5V2.5C1 1.67157 1.44772 1 2 1H10ZM2.2998 2C2.13421 2.00018 2 2.22397 2 2.5V5L2.10059 5.00977C2.32855 5.05629 2.5 5.25829 2.5 5.5V6.5C2.5 6.77614 2.27614 7 2 7V9.5C2 9.77603 2.13421 9.99982 2.2998 10H9.7002C9.86579 9.99982 10 9.77603 10 9.5V7C9.72386 7 9.5 6.77614 9.5 6.5V5.5C9.5 5.22386 9.72386 5 10 5V2.5C10 2.22397 9.86579 2.00018 9.7002 2H2.2998ZM4 9H3V8H4V9ZM7 3C7.55228 3 8 3.44772 8 4V8H9V9H5V8H7V4H6V3H7Z" fill="#4285F4"/>
</svg>
