<svg width="12" height="12" viewBox="0 0 12 12" fill="none" xmlns="http://www.w3.org/2000/svg">
<path d="M10.5 1C11.3284 1 12 1.67157 12 2.5V9.5C12 10.3284 11.3284 11 10.5 11H1.5C0.671573 11 0 10.3284 0 9.5V2.5C0 1.67157 0.671573 1 1.5 1H10.5ZM1.5 2C1.22386 2 1 2.22386 1 2.5V9.5C1 9.77614 1.22386 10 1.5 10H10.5C10.7761 10 11 9.77614 11 9.5V2.5C11 2.22386 10.7761 2 10.5 2H1.5ZM5.5 6C6.32843 6 7 6.67157 7 7.5C7 8.32843 6.32843 9 5.5 9C4.67157 9 4 8.32843 4 7.5C4 6.67157 4.67157 6 5.5 6ZM5.5 7C5.22386 7 5 7.22386 5 7.5C5 7.77614 5.22386 8 5.5 8C5.77614 8 6 7.77614 6 7.5C6 7.22386 5.77614 7 5.5 7ZM8.5 4C9.32843 4 10 4.67157 10 5.5C10 6.32843 9.32843 7 8.5 7C7.67157 7 7 6.32843 7 5.5C7 4.67157 7.67157 4 8.5 4ZM3.5 3C4.32843 3 5 3.67157 5 4.5C5 5.32843 4.32843 6 3.5 6C2.67157 6 2 5.32843 2 4.5C2 3.67157 2.67157 3 3.5 3ZM8.5 5C8.22386 5 8 5.22386 8 5.5C8 5.77614 8.22386 6 8.5 6C8.77614 6 9 5.77614 9 5.5C9 5.22386 8.77614 5 8.5 5ZM3.5 4C3.22386 4 3 4.22386 3 4.5C3 4.77614 3.22386 5 3.5 5C3.77614 5 4 4.77614 4 4.5C4 4.22386 3.77614 4 3.5 4Z" fill="#4285F4"/>
</svg>
