<svg width="12" height="12" viewBox="0 0 12 12" fill="none" xmlns="http://www.w3.org/2000/svg">
<path d="M6 0C8.76142 0 11 2.23858 11 5C11 6.30538 10.4969 7.53287 9.6084 8.46094L8.98145 9.08691C10.2476 9.33608 10.9999 9.73218 11 10.4121C11 11.4744 8.82613 12 6 12C3.17387 12 1 11.4744 1 10.4121C1.00012 9.74074 1.73279 9.34602 3.02246 9.0918L2.3877 8.45703C1.50305 7.53288 1 6.30535 1 5C1 2.23858 3.23858 0 6 0ZM3.61133 9.99609C3.31449 10.0432 3.0509 10.1012 2.82715 10.1582L2.52148 10.2422L2.28223 10.3164L2.07715 10.3867L2.10156 10.4014C2.25086 10.4867 2.47524 10.5718 2.75879 10.6494L2.93555 10.6953C3.47433 10.8255 4.14947 10.9171 4.89258 10.9639L3.92871 9.99902L3.61133 9.99609ZM7.10645 10.9639C7.84994 10.9171 8.52543 10.8256 9.06445 10.6953C9.3712 10.6212 9.62133 10.5381 9.7998 10.4531L9.92285 10.3867L9.80273 10.3447L9.49805 10.2451L9.20215 10.1611C9.03964 10.1182 8.85597 10.0744 8.65625 10.0361L8.45117 10H8.07031L7.10645 10.9639ZM6 1C3.79086 1 2 2.79086 2 5C2 6.04515 2.40196 7.02579 3.10645 7.76172L6 10.6572L8.88965 7.76562C9.59792 7.02578 10 6.04515 10 5C10 2.79086 8.20914 1 6 1ZM6 3C7.10457 3 8 3.89543 8 5C8 6.10457 7.10457 7 6 7C4.89543 7 4 6.10457 4 5C4 3.89543 4.89543 3 6 3ZM6 4C5.44772 4 5 4.44772 5 5C5 5.55228 5.44772 6 6 6C6.55228 6 7 5.55228 7 5C7 4.44772 6.55228 4 6 4Z" fill="#4285F4"/>
</svg>
