<svg width="12" height="12" viewBox="0 0 12 12" fill="none" xmlns="http://www.w3.org/2000/svg">
<path fill-rule="evenodd" clip-rule="evenodd" d="M1 5.5C1 3.01472 3.01472 1 5.5 1C7.4781 1 9.19403 2.28612 9.78363 4.11747L9.826 4.261L9.9241 4.30217C11.1078 4.82871 11.9197 5.98016 11.9944 7.30071L12 7.5C12 9.35649 10.5506 10.8871 8.69071 10.9947L8.5 11L2.98383 10.9997L2.80324 10.9936C1.23056 10.8916 0 9.58349 0 8C0 7.15845 0.34939 6.37462 0.943678 5.81546L1.008 5.758L1.00369 5.68278L1 5.5ZM8.91893 4.7471C8.57 3.15431 7.15236 2 5.5 2C3.567 2 2 3.567 2 5.5C2 5.64253 2.00849 5.78129 2.02545 5.9153L2.06252 6.20828L1.82383 6.38218C1.30968 6.75678 1 7.35207 1 8C1 9.05552 1.82054 9.92774 2.85179 9.99494L3 10L8.48556 10.0002L8.64735 9.99574C9.96454 9.91943 11 8.82594 11 7.5C11 6.40233 10.2861 5.44267 9.25647 5.1168L8.9808 5.02955L8.91893 4.7471Z" fill="#4285F4"/>
</svg>
