<svg width="12" height="12" viewBox="0 0 12 12" fill="none" xmlns="http://www.w3.org/2000/svg">
<path d="M6 0C9.31371 0 12 2.68629 12 6C12 9.31371 9.31371 12 6 12C2.68629 12 0 9.31371 0 6C0 2.68629 2.68629 0 6 0ZM6 1C3.23858 1 1 3.23858 1 6C1 8.76142 3.23858 11 6 11C8.76142 11 11 8.76142 11 6C11 3.23858 8.76142 1 6 1ZM8.61035 7.83203C7.95079 8.56987 7.0094 9 6 9C5.06987 8.99999 4.19736 8.63415 3.5498 7.99902L3.4043 7.84863L4.14551 7.17676C4.61693 7.69754 5.2838 7.99999 6 8C6.65611 8 7.27072 7.74635 7.73145 7.30371L7.86426 7.16504L8.61035 7.83203ZM5 5.5H3.5V4H5V5.5ZM8.5 5.5H7V4H8.5V5.5Z" fill="#4285F4"/>
</svg>
