<svg width="13" height="12" viewBox="0 0 13 12" fill="none" xmlns="http://www.w3.org/2000/svg">
<path d="M5 0C7.56016 0 9.68351 1.67539 9.80273 3.8291L9.80371 3.89941C11.1836 4.49065 12.1367 5.68103 12.1367 7.08008L12.1299 7.29004C12.0671 8.19242 11.6012 9.01998 10.8496 9.63281L10.7549 9.70605L10.9102 10.6436C10.9664 10.9838 10.7356 11.3056 10.3955 11.3623C10.2447 11.3873 10.0893 11.3558 9.95996 11.2744L8.83008 10.5596C8.50141 10.6248 8.16234 10.6601 7.81836 10.6602C7.4807 10.6601 7.14755 10.6274 6.82422 10.5645C5.29113 10.266 4.07775 9.29484 3.65918 8.04199L2.52246 8.77051C2.39292 8.85322 2.23764 8.88503 2.08594 8.86035C1.74539 8.80475 1.51392 8.48409 1.56934 8.14355L1.75781 6.98926L1.6416 6.89941C0.790392 6.20589 0.265517 5.26531 0.199219 4.24121L0.192383 4.01953C0.192685 1.77478 2.36472 1.00356e-07 5 0ZM7.81836 4.5C5.96506 4.50008 4.5 5.68173 4.5 7.08008C4.5 7.15611 4.50424 7.23169 4.5127 7.30664C4.63442 8.38563 5.63711 9.31465 7.01465 9.58301C7.27504 9.63368 7.54474 9.66015 7.81836 9.66016C8.15697 9.66013 8.48925 9.62001 8.80566 9.54297L9.01074 9.49316L9.78809 9.98242L9.66406 9.23926L9.93848 9.06152C10.6983 8.56814 11.1367 7.84579 11.1367 7.08008C11.1367 5.68177 9.67157 4.50015 7.81836 4.5ZM5 1C2.87752 1 1.1927 2.37663 1.19238 4.01953C1.19238 4.86179 1.63429 5.65708 2.40527 6.22754L2.57617 6.3457L2.84668 6.52441L2.69141 7.47461L3.50293 6.95605C3.58163 5.01179 5.50337 3.50008 7.81836 3.5C8.14355 3.50002 8.46093 3.53023 8.7666 3.58691C8.50142 2.14206 6.93298 1 5 1ZM6.5 6C6.77614 6 7 6.22386 7 6.5C7 6.77614 6.77614 7 6.5 7C6.22386 7 6 6.77614 6 6.5C6 6.22386 6.22386 6 6.5 6ZM9 6C9.27614 6 9.5 6.22386 9.5 6.5C9.5 6.77614 9.27614 7 9 7C8.72386 7 8.5 6.77614 8.5 6.5C8.5 6.22386 8.72386 6 9 6ZM3.5 2C3.77614 2 4 2.22386 4 2.5C4 2.77614 3.77614 3 3.5 3C3.22386 3 3 2.77614 3 2.5C3 2.22386 3.22386 2 3.5 2ZM6.5 2C6.77614 2 7 2.22386 7 2.5C7 2.77614 6.77614 3 6.5 3C6.22386 3 6 2.77614 6 2.5C6 2.22386 6.22386 2 6.5 2Z" fill="#4285F4"/>
</svg>
