<svg width="12" height="12" viewBox="0 0 12 12" fill="none" xmlns="http://www.w3.org/2000/svg">
<path d="M6 1C7.21049 1 8.32893 1.39203 9.2373 2.05469L10.1465 1.14648L10.8535 1.85352L9.98926 2.7168C10.9246 3.70278 11.5 5.03365 11.5 6.5C11.5 9.53757 9.03757 12 6 12C2.96243 12 0.5 9.53757 0.5 6.5C0.5 5.03389 1.07468 3.70273 2.00977 2.7168L1.14648 1.85352L1.85352 1.14648L2.76172 2.05469C3.67021 1.39174 4.78923 1 6 1ZM6 2C3.51472 2 1.5 4.01472 1.5 6.5C1.5 8.98528 3.51472 11 6 11C8.48528 11 10.5 8.98528 10.5 6.5C10.5 4.01472 8.48528 2 6 2ZM6.5 6.79297L7.85352 8.14648L7.14648 8.85352L5.79297 7.5C5.6368 7.34383 5.5376 7.14133 5.50879 6.9248L5.5 6.79297V4H6.5V6.79297ZM8.5 1H3.5V0H8.5V1Z" fill="#4285F4"/>
</svg>
