<svg width="12" height="12" viewBox="0 0 12 12" fill="none" xmlns="http://www.w3.org/2000/svg">
<path d="M11 1C11.5523 1 12 1.44772 12 2V8C12 8.55228 11.5523 9 11 9H6.90137L9.27734 10.584L8.72266 11.416L6.05566 9.6377C6.03327 9.62277 6.00588 9.61807 5.98047 9.62305L5.94434 9.6377L3.27734 11.416L2.72266 10.584L5.09863 9H1C0.447715 9 0 8.55228 0 8V2C0 1.44772 0.447715 1 1 1H11ZM1 8H11V2H1V8ZM9.29492 4.4043L7.06738 6.02832C6.82274 6.20671 6.50125 6.23001 6.23633 6.09668L6.13965 6.03906L4.82715 5.12793L3.32031 6.38379L2.67969 5.61621L4.30469 4.26172C4.5504 4.05721 4.89081 4.02071 5.1709 4.15918L5.27246 4.21973L6.5918 5.13574L8.70508 3.5957L9.29492 4.4043Z" fill="#4285F4"/>
</svg>
