<svg width="12" height="12" viewBox="0 0 12 12" fill="none" xmlns="http://www.w3.org/2000/svg">
<path d="M11 0C11.5523 0 12 0.447715 12 1V4C12 4.55228 11.5523 5 11 5H4C3.44772 5 3 4.55228 3 4V3H2.5C2.25454 3 2.05015 3.17691 2.00781 3.41016L2 3.5L2.00098 4.58594C2.58302 4.79215 3 5.34728 3 6C3 6.65272 2.58302 7.20785 2.00098 7.41406L2 8.5C2 8.74546 2.17691 8.94985 2.41016 8.99219L2.5 9H3V8C3 7.44772 3.44772 7 4 7H11C11.5523 7 12 7.44772 12 8V11C12 11.5523 11.5523 12 11 12H4C3.44772 12 3 11.5523 3 11V10H2.5C1.72033 10 1.07955 9.40515 1.00684 8.64453L1 8.5V7.41504C0.41734 7.20916 0 6.65316 0 6C0 5.34684 0.41734 4.79084 1 4.58496V3.5C1 2.72033 1.59485 2.07955 2.35547 2.00684L2.5 2H3V1C3 0.447715 3.44772 0 4 0H11ZM4 11H11V8H4V11ZM1.5 5.5C1.22386 5.5 1 5.72386 1 6C1 6.27614 1.22386 6.5 1.5 6.5C1.77614 6.5 2 6.27614 2 6C2 5.72386 1.77614 5.5 1.5 5.5ZM4 4H11V1H4V4Z" fill="#4285F4"/>
</svg>
