<svg width="12" height="12" viewBox="0 0 12 12" fill="none" xmlns="http://www.w3.org/2000/svg">
<path d="M6.00092 1C8.18155 1.00026 10.1115 2.52991 11.8027 5.50684C11.9721 5.80909 11.973 6.1777 11.8007 6.48828L11.6249 6.79199C9.98142 9.57037 8.10809 10.9998 6.00092 11C3.82007 11 1.88946 9.4703 0.198183 6.49316C0.0287856 6.19092 0.0278951 5.82229 0.200137 5.51172L0.375918 5.20801C2.01958 2.42938 3.89352 1 6.00092 1ZM6.00092 2C4.3078 2 2.71814 3.21276 1.2392 5.71289L1.07025 6.00391C2.59942 8.69567 4.24585 10 6.00092 10C7.69384 9.99974 9.28287 8.78701 10.7617 6.28711L10.9306 5.99609C9.40158 3.30457 7.7558 2.00027 6.00092 2ZM5.99994 4C7.10451 4 7.99994 4.89543 7.99994 6C7.99994 7.10457 7.10451 8 5.99994 8C4.89551 7.99984 3.99994 7.10447 3.99994 6C3.99994 4.89553 4.89551 4.00016 5.99994 4ZM5.99994 5C5.44779 5.00016 4.99994 5.44781 4.99994 6C4.99994 6.55219 5.44779 6.99984 5.99994 7C6.55223 7 6.99994 6.55228 6.99994 6C6.99994 5.44772 6.55223 5 5.99994 5Z" fill="#4285F4"/>
</svg>
