<svg width="12" height="12" viewBox="0 0 12 12" fill="none" xmlns="http://www.w3.org/2000/svg">
<path d="M7.53027 0C7.88202 0 8.22687 0.105184 8.51855 0.301758C9.32717 0.847165 9.54038 1.94513 8.99512 2.75391L7.83496 4.47461C7.77941 4.55709 7.75004 4.6545 7.75 4.75391V5.52637C7.75312 5.80221 7.97912 6.02319 8.25488 6.02051L10.4023 5.99707L10.5605 6.00391C11.3212 6.07659 11.916 6.71737 11.916 7.49707V10.5C11.916 11.3284 11.2444 12 10.416 12H1.58301C0.754752 11.9998 0.0830135 11.3283 0.0830078 10.5V7.48047C0.0922104 6.65224 0.771427 5.9881 1.59961 5.99707L3.74121 6.02051C4.02569 6.02056 4.25 5.79665 4.25 5.52051V4.75391C4.24995 4.6544 4.21969 4.55712 4.16406 4.47461L3.00391 2.75391C2.80734 2.46227 2.70219 2.1183 2.70215 1.7666C2.70215 0.791186 3.49338 0.000197944 4.46875 0H7.53027ZM4.46875 1C4.04566 1.0002 3.70215 1.34347 3.70215 1.7666C3.70219 1.91894 3.74797 2.06795 3.83301 2.19434L4.99316 3.91602C5.16008 4.16366 5.24995 4.45526 5.25 4.75391V5.52051C5.25 6.34888 4.57819 7.02042 3.74707 7.02051L1.58887 6.99707C1.31301 6.9942 1.08621 7.21503 1.08301 7.48535V10.5C1.08301 10.776 1.30703 10.9998 1.58301 11H10.416C10.6922 11 10.916 10.7761 10.916 10.5V7.49707C10.916 7.22093 10.6923 6.99708 10.4189 6.99707L8.2666 7.02051C7.43851 7.02951 6.75943 6.36582 6.75 5.53223V4.75391C6.75005 4.45539 6.83908 4.16359 7.00586 3.91602L8.16602 2.19434C8.4024 1.84341 8.30985 1.3674 7.95898 1.13086C7.83248 1.04567 7.68279 1 7.53027 1H4.46875ZM10 10H2V9H10V10Z" fill="#4285F4"/>
</svg>
