<svg width="12" height="12" viewBox="0 0 12 12" fill="none" xmlns="http://www.w3.org/2000/svg">
<path d="M9.07812 1.50196C9.32345 1.50819 9.52312 1.69061 9.55957 1.92481L9.56543 2.01466L9.52637 3.5547C9.65341 3.55478 9.77092 3.54165 9.87891 3.51466C10.109 3.45707 10.3892 3.3174 10.7129 3.09083C10.9391 2.93245 11.2508 2.98767 11.4092 3.21388C11.5674 3.44006 11.5132 3.7518 11.2871 3.91016C10.8706 4.20182 10.4837 4.39472 10.1211 4.48536C10.0905 4.493 10.0594 4.4985 10.0283 4.50489C10.3595 4.71524 10.6349 4.92784 10.8535 5.14649C11.2194 5.51239 11.3925 5.76042 11.4629 6.05665C11.4823 6.13823 11.4915 6.20342 11.4961 6.28907L11.5 6.50001C11.5 6.85299 11.3604 7.20296 11.1006 7.54981C10.9351 7.77075 10.6214 7.81583 10.4004 7.6504C10.1794 7.48482 10.1342 7.1712 10.2998 6.9502C10.4398 6.7633 10.5 6.61303 10.5 6.50001L10.4971 6.3379L10.4893 6.28712C10.4826 6.25962 10.4678 6.22619 10.4385 6.18263L10.3584 6.08009C10.3074 6.02009 10.2388 5.94581 10.1465 5.85352C9.97397 5.68103 9.74044 5.50635 9.4502 5.3252C9.26183 6.00089 8.55994 6.75001 8 6.75001C7.90419 6.75001 7.8024 6.74199 7.69434 6.72657C7.58619 6.71112 7.47331 6.6891 7.35938 6.66212L7.17969 6.61524L7.04688 6.57618C6.78412 6.49166 6.63928 6.21007 6.72363 5.94727C6.80809 5.68453 7.08978 5.53985 7.35254 5.62403L7.51562 5.66993L7.58984 5.68849C7.67614 5.70892 7.75956 5.72555 7.83496 5.73634L7.95215 5.74903C7.96935 5.75006 7.98536 5.75001 8 5.75001C8.05211 5.75001 8.44167 5.28508 8.49316 5.04688L8.49023 4.98731L8.49512 4.77442L8.49023 4.72364L8.46973 4.69141L8.39062 4.60255L8.14648 4.35352C7.84753 4.0546 7.62917 4.00001 7 4.00001C6.64007 4.00001 6.23587 4.1413 5.75684 4.42872L5.61914 4.52052L5.44141 4.65626L5.22363 4.83399L4.96582 5.05372L4.50977 5.46192C4.45439 5.51235 4.39729 5.56436 4.33887 5.61817C4.33441 5.62228 4.32878 5.625 4.32422 5.62891C4.33178 5.7687 4.33 5.90223 4.31836 6.03516C4.68151 6.1126 5.02763 6.32063 5.35352 6.64649C6.14226 7.43524 6.48741 8.6432 5.94727 9.72364C5.82377 9.97063 5.52336 10.0708 5.27637 9.94727C5.02942 9.82376 4.92925 9.52334 5.05273 9.27638C5.37604 8.6296 5.15767 7.86471 4.64648 7.35352C4.43504 7.1421 4.24737 7.03358 4.08105 7.00684L4.04883 7.00391C4.01728 7.07451 3.98495 7.14826 3.94727 7.22364C3.38252 8.35313 2.2571 8.61305 1.0918 8.22462C0.369801 7.98393 0 7.36722 0 6.50001C8.53121e-05 6.22394 0.22391 6.00001 0.5 6.00001C0.77609 6.00001 0.999915 6.22394 1 6.50001C1 6.96608 1.13026 7.18273 1.4082 7.2754C2.15199 7.52333 2.74791 7.38602 3.05273 6.77638C3.31107 6.25968 3.36377 5.96619 3.31445 5.51759L3.25293 5.04981L3.14453 4.13673L3.00391 3.06641C2.96743 2.79282 3.16007 2.54156 3.43359 2.50489C3.70718 2.46841 3.9594 2.6601 3.99609 2.9336L4.17871 4.35255L4.18555 4.41016L4.48145 4.15138L4.74316 3.9336C4.94658 3.76966 5.11295 3.64943 5.24316 3.5713C5.86398 3.19886 6.43147 3.00001 7 3.00001C7.69279 3.00001 8.1162 3.07398 8.53027 3.37208L8.56543 1.98927C8.57239 1.71323 8.80208 1.49502 9.07812 1.50196Z" fill="#4285F4"/>
</svg>
