<svg width="12" height="12" viewBox="0 0 12 12" fill="none" xmlns="http://www.w3.org/2000/svg">
<path fill-rule="evenodd" clip-rule="evenodd" d="M1.2439 0.589147C1.25464 0.510118 1.27982 0.421888 1.33575 0.326155C1.48309 0.0739627 1.7715 -0.061159 2.09485 0.0269739L2.1797 0.0585979L3.64745 0.7439C4.07304 0.938606 4.49986 1.13036 4.91678 1.31328L5.98517 1.77045L6.55178 2.0006L6.81248 2.10237L8.71278 2.80371L9.00018 2.92083C10.1286 3.40368 10.6388 3.89973 10.4533 4.72017C10.4273 4.83774 10.3755 4.9778 10.294 5.16216L10.2292 5.30357C10.206 5.35275 10.1814 5.40397 10.1554 5.45718L9.98172 5.79997L9.77497 6.18853L9.4304 6.8102L9.17207 7.26237L9.08796 7.40527L9.55012 7.40539C9.58624 7.41581 9.61908 7.42528 9.64902 7.43419L9.79696 7.48398C9.93614 7.54136 9.97095 7.60888 10.0333 7.81848L10.0621 7.91739C10.0454 8.07639 10.0454 8.07639 9.96643 8.21542L7.44217 11.7415L7.28069 11.8655C7.14672 11.9607 7.07814 11.972 6.92066 11.9251L6.72782 11.8598C6.62343 11.7463 6.57123 11.6896 6.54623 11.6227C6.52124 11.5558 6.52344 11.4787 6.52785 11.3246L6.94996 9.55427L6.53901 9.55487L6.35589 9.49938C6.18241 9.43999 6.13628 9.38457 6.07894 9.1785L6.03014 8.98703L6.03978 8.92922L6.21496 8.15427L6.01613 8.22012C5.99099 8.23055 5.96061 8.24102 5.92513 8.25076L5.8681 8.26471C5.31121 8.38555 4.60746 8.1733 3.85598 7.45418L3.77838 7.37807C3.61945 7.21614 3.48051 7.04578 3.38546 6.86543C3.26993 6.64624 3.23006 6.4108 3.29796 6.20227L3.23096 6.17009C2.63565 5.8413 2.08763 5.03066 1.89758 4.24098L1.87396 4.13027L1.86288 4.09856C1.84393 4.04046 1.8303 3.98054 1.82454 3.91717L1.82213 3.81932C1.82987 3.63028 1.89175 3.48556 1.99382 3.38359L2.00896 3.36927L1.95395 3.29643C1.60175 2.78116 1.23229 1.57582 1.23701 0.758058L1.2439 0.589147ZM2.27196 1.20927L2.28043 1.26315C2.38195 1.85225 2.62784 2.55536 2.79258 2.75016L3.1828 2.91028L4.11273 3.26449L5.01618 3.58264L5.94239 3.89507L6.56541 4.09922L6.30843 5.06429L4.85504 4.7484L3.82611 4.51558L3.13291 4.34933L2.96796 4.30627C3.16026 4.77455 3.49326 5.2022 3.71647 5.30324L3.77988 5.32346C3.79753 5.32637 3.81844 5.32918 3.84246 5.33187L4.0226 5.34666L4.4165 5.36346L4.93682 5.3733L5.76106 5.37539L6.45138 5.36911L6.51974 6.36537L5.59086 6.48899L4.46696 6.65127L4.53329 6.7184L4.67092 6.84506C5.12367 7.24291 5.44953 7.33226 5.65603 7.28745L5.95714 7.18801C6.25064 7.09393 6.51933 7.01658 6.76919 6.95323L7.56088 6.75251L7.14796 8.55427L7.57158 8.5552L7.68754 8.56887L7.85043 8.66352C8.00415 8.75901 8.04004 8.81741 8.05579 8.99769L8.06396 9.15427L8.59996 8.40527L8.44073 8.40539C8.36866 8.40539 8.29741 8.39293 8.23005 8.36881L8.13233 8.324C7.8321 8.15368 7.72679 7.77222 7.89711 7.47199L8.08029 7.14929L8.5594 6.31892L8.80394 5.88027L8.99763 5.52253L9.17689 5.17834L9.32138 4.88396L9.41744 4.66906L9.46631 4.54071L9.47735 4.50206C9.51238 4.34711 9.32768 4.16149 8.73553 3.89621L8.43261 3.76794L8.20054 3.67885L6.55175 3.0728L6.1851 2.93095L5.6037 2.69484L4.74344 2.32879L3.87645 1.94558C3.44783 1.75324 3.01519 1.55512 2.58946 1.357L2.27196 1.20927Z" fill="#4285F4"/>
</svg>
