<svg width="12" height="12" viewBox="0 0 12 12" fill="none" xmlns="http://www.w3.org/2000/svg">
<path d="M6 0C9.31371 0 12 2.68629 12 6C12 9.31371 9.31371 12 6 12C2.68629 12 0 9.31371 0 6C0 2.68629 2.68629 0 6 0ZM6.5 3H5.5V1.02441C3.13777 1.25894 1.25894 3.13777 1.02441 5.5H3V6.5H1.02441C1.25893 8.8622 3.13782 10.74 5.5 10.9746V9H6.5V10.9746C8.86218 10.74 10.7411 8.8622 10.9756 6.5H9V5.5H10.9756C10.7411 3.13777 8.86223 1.25894 6.5 1.02441V3ZM6 4C7.10457 4 8 4.89543 8 6C8 7.10457 7.10457 8 6 8C4.89543 8 4 7.10457 4 6C4 4.89543 4.89543 4 6 4ZM6 5C5.44772 5 5 5.44772 5 6C5 6.55228 5.44772 7 6 7C6.55228 7 7 6.55228 7 6C7 5.44772 6.55228 5 6 5Z" fill="#4285F4"/>
</svg>
