<svg width="12" height="12" viewBox="0 0 12 12" fill="none" xmlns="http://www.w3.org/2000/svg">
<path d="M5.7998 5.0127C6.26155 5.54051 6.29279 6.31091 5.89258 6.87109L5.7998 6.9873L2.87598 10.3291L2.12402 9.6709L5.04785 6.3291C5.19198 6.16416 5.20976 5.92777 5.10156 5.74512L5.04785 5.6709L2.12402 2.3291L2.87598 1.6709L5.7998 5.0127ZM9.7998 5.0127C10.2616 5.54051 10.2928 6.31091 9.89258 6.87109L9.7998 6.9873L6.87598 10.3291L6.12402 9.6709L9.04785 6.3291C9.19198 6.16416 9.20976 5.92777 9.10156 5.74512L9.04785 5.6709L6.12402 2.3291L6.87598 1.6709L9.7998 5.0127Z" fill="#4285F4"/>
</svg>
