<svg width="12" height="12" viewBox="0 0 12 12" fill="none" xmlns="http://www.w3.org/2000/svg">
<path d="M5.87688 2.3291L2.95305 5.6709C2.80872 5.83585 2.79012 6.07214 2.89836 6.25488L2.95305 6.3291L5.87688 9.6709L5.12395 10.3291L2.20012 6.9873C1.73848 6.45952 1.70724 5.68905 2.10735 5.12891L2.20012 5.0127L5.12395 1.6709L5.87688 2.3291ZM9.87688 2.3291L6.95305 5.6709C6.80872 5.83585 6.79012 6.07214 6.89836 6.25488L6.95305 6.3291L9.87688 9.6709L9.12395 10.3291L6.20012 6.9873C5.73848 6.45952 5.70724 5.68905 6.10735 5.12891L6.20012 5.0127L9.12395 1.6709L9.87688 2.3291Z" fill="#4285F4"/>
</svg>
