<svg width="12" height="12" viewBox="0 0 12 12" fill="none" xmlns="http://www.w3.org/2000/svg">
<path d="M1.30178 11C1.13602 11 0.977045 10.9342 0.859835 10.8169C0.615757 10.5729 0.615757 10.1771 0.859835 9.93306L3.93306 6.85984C4.05027 6.74262 4.20924 6.67678 4.375 6.67678C4.72018 6.67678 5 6.9566 5 7.30178V9.5H4V8.208L2.207 10H8.5C9.2797 10 9.92045 9.40511 9.99313 8.64446L10 8.5H11C11 9.88071 9.88071 11 8.5 11H1.30178Z" fill="#4285F4"/>
<path d="M10.6982 1C10.864 1 11.023 1.06585 11.1402 1.18306C11.3842 1.42714 11.3842 1.82286 11.1402 2.06694L8.06694 5.14016C7.94973 5.25738 7.79076 5.32322 7.625 5.32322C7.27982 5.32322 7 5.0434 7 4.69822V2.5H8V3.792L9.793 2H3.5C2.7203 2 2.07955 2.59489 2.00687 3.35554L2 3.5H1C1 2.11929 2.11929 1 3.5 1H10.6982Z" fill="#4285F4"/>
</svg>
