<svg width="12" height="12" viewBox="0 0 12 12" fill="none" xmlns="http://www.w3.org/2000/svg">
<path fill-rule="evenodd" clip-rule="evenodd" d="M0 6C0 2.68629 2.68629 0 6 0C9.31371 0 12 2.68629 12 6C12 9.31371 9.31371 12 6 12C2.68629 12 0 9.31371 0 6ZM11 6C11 3.23858 8.76142 1 6 1C3.23858 1 1 3.23858 1 6C1 8.76142 3.23858 11 6 11C8.76142 11 11 8.76142 11 6Z" fill="#4285F4"/>
<path d="M7.64645 3.64645L8.35356 4.35355L6.70701 6L8.35356 7.64645L7.64645 8.35355L6.00001 6.707L4.35356 8.35355L3.64645 7.64645L5.29301 6L3.64645 4.35355L4.35356 3.64645L6.00001 5.293L7.64645 3.64645Z" fill="#4285F4"/>
</svg>
