<svg width="12" height="12" viewBox="0 0 12 12" fill="none" xmlns="http://www.w3.org/2000/svg">
<path d="M7.5 0C8.27967 0 8.92045 0.594849 8.99316 1.35547L9 1.5V2H12V3H11V10.5C11 11.2797 10.4052 11.9204 9.64453 11.9932L9.5 12H2.5C1.72033 12 1.07955 11.4052 1.00684 10.6445L1 10.5V3H0V2H3V1.5C3 0.720327 3.59485 0.0795522 4.35547 0.00683594L4.5 0H7.5ZM2 10.5C2 10.7455 2.17691 10.9499 2.41016 10.9922L2.5 11H9.5C9.74546 11 9.94985 10.8231 9.99219 10.5898L10 10.5V3H2V10.5ZM4.5 1C4.25454 1 4.05015 1.17691 4.00781 1.41016L4 1.5V2H8V1.5C8 1.25454 7.82309 1.05015 7.58984 1.00781L7.5 1H4.5Z" fill="#4285F4"/>
<path d="M5 5V9H4V5H5Z" fill="#4285F4"/>
<path d="M8 5V9H7V5H8Z" fill="#4285F4"/>
</svg>
