<svg width="12" height="12" viewBox="0 0 12 12" fill="none" xmlns="http://www.w3.org/2000/svg">
<path d="M2 11H10V10H11V11C11 11.5128 10.6135 11.9354 10.1162 11.9932L10 12H2C1.48716 12 1.0646 11.6135 1.00684 11.1162L1 11V10H2V11ZM8 0C8.55208 0.000238298 9 0.447862 9 1V5H10.1982C10.5117 5.00022 10.7716 5.23121 10.8164 5.53223L10.8232 5.625C10.8232 5.79066 10.7577 5.95019 10.6406 6.06738L6.44238 10.2656C6.19846 10.5093 5.80264 10.5091 5.55859 10.2656L1.36035 6.06738C1.11627 5.82331 1.11627 5.42669 1.36035 5.18262C1.47741 5.06582 1.63639 5.00012 1.80176 5H3V1C3 0.487172 3.38646 0.0646119 3.88379 0.00683594L4 0H8ZM4 5.375C4 5.72003 3.71998 5.99976 3.375 6H2.70703L6 9.29297L9.29199 6H8.625C8.31154 5.99979 8.05163 5.76882 8.00684 5.46777L8 5.375V1H4V5.375Z" fill="#4285F4"/>
</svg>
