<svg width="12" height="12" viewBox="0 0 12 12" fill="none" xmlns="http://www.w3.org/2000/svg">
<path d="M12 11V12H7V11H12Z" fill="#4285F4"/>
<path d="M6.793 0.500018C7.18352 0.109535 7.81655 0.109508 8.20706 0.500018L11.5 3.79299C11.8903 4.18352 11.8904 4.8166 11.5 5.20705L5.20706 11.5C4.81661 11.8904 4.18353 11.8903 3.793 11.5L0.500028 8.20705C0.109516 7.81654 0.109541 7.18351 0.500028 6.79299L6.793 0.500018ZM1.20706 7.50002L4.50003 10.793L5.79202 9.49904L2.50003 6.20705L1.20706 7.50002ZM3.20706 5.50002L6.49905 8.79201L10.792 4.49904L7.50003 1.20705L3.20706 5.50002Z" fill="#4285F4"/>
</svg>
