<svg width="12" height="12" viewBox="0 0 12 12" fill="none" xmlns="http://www.w3.org/2000/svg">
<path d="M5.25542 0.712836C5.97468 0.301866 6.89128 0.552199 7.3023 1.27143L11.5796 8.7558C11.7091 8.98237 11.7769 9.23902 11.7769 9.49995C11.7769 10.3283 11.1053 10.9999 10.2769 10.9999H1.7232C1.46224 10.9999 1.20565 10.9321 0.979056 10.8027C0.259862 10.3917 0.00962983 9.47504 0.420462 8.7558L4.69781 1.27143C4.83066 1.03897 5.02297 0.845705 5.25542 0.712836ZM6.43413 1.76752C6.29713 1.52781 5.99126 1.44404 5.75152 1.581C5.6741 1.62528 5.61023 1.69009 5.56597 1.76752L1.28863 9.2519C1.1518 9.49162 1.23547 9.79755 1.47515 9.93452C1.55064 9.97761 1.63627 9.99994 1.7232 9.99995H10.2769C10.553 9.9999 10.7769 9.77605 10.7769 9.49995C10.7769 9.41295 10.7537 9.32743 10.7105 9.2519L6.43413 1.76752ZM6.49956 8.99995H5.49956V7.99995H6.49956V8.99995ZM6.49956 6.99995H5.49956V3.49995H6.49956V6.99995Z" fill="#4285F4"/>
</svg>
