<svg width="12" height="12" viewBox="0 0 12 12" fill="none" xmlns="http://www.w3.org/2000/svg">
<path d="M5.35352 7.35352L2.70703 10H5V11H2C1.48716 11 1.0646 10.6135 1.00684 10.1162L1 10V7H2V9.29297L4.64648 6.64648L5.35352 7.35352ZM10 9.29297V7H11V10C11 10.5128 10.6135 10.9354 10.1162 10.9932L10 11H7V10H9.29297L6.64648 7.35352L7.35352 6.64648L10 9.29297ZM5 2H2.70703L5.35352 4.64648L4.64648 5.35352L2 2.70703V5H1V2C1 1.48716 1.38645 1.0646 1.88379 1.00684L2 1H5V2ZM10 1C10.5128 1 10.9354 1.38645 10.9932 1.88379L11 2V5H10V2.70703L7.35352 5.35352L6.64648 4.64648L9.29297 2H7V1H10Z" fill="#4285F4"/>
</svg>
