<svg width="12" height="12" viewBox="0 0 12 12" fill="none" xmlns="http://www.w3.org/2000/svg">
<path d="M4 7C4.51284 7 4.9354 7.38645 4.99316 7.88379L5 8V11H4V8.70703L0.853516 11.8535L0.146484 11.1465L3.29297 8H1V7H4ZM11 8H8.70703L11.8535 11.1465L11.1465 11.8535L8 8.70703V11H7V8C7 7.48716 7.38645 7.0646 7.88379 7.00684L8 7H11V8ZM4 3.29297V1H5V4C5 4.51284 4.61355 4.9354 4.11621 4.99316L4 5H1V4H3.29297L0.146484 0.853516L0.853516 0.146484L4 3.29297ZM11.8535 0.853516L8.70703 4H11V5H8C7.48716 5 7.0646 4.61355 7.00684 4.11621L7 4V1H8V3.29297L11.1465 0.146484L11.8535 0.853516Z" fill="#4285F4"/>
</svg>
