<svg width="12" height="12" viewBox="0 0 12 12" fill="none" xmlns="http://www.w3.org/2000/svg">
<path fill-rule="evenodd" clip-rule="evenodd" d="M1 0H11C11.5523 0 12 0.447715 12 1V1.79289C12 2.05811 11.8946 2.31246 11.7071 2.5L8.14645 6.06066C8.05268 6.15443 8 6.28161 8 6.41421V11.1263C8 11.5129 7.6866 11.8263 7.3 11.8263C7.1618 11.8263 7.0267 11.7854 6.91171 11.7087L4.31171 9.9754C4.11697 9.84557 4 9.62701 4 9.39296V6.41421C4 6.28161 3.94732 6.15443 3.85355 6.06066L0.292893 2.5C0.105357 2.31246 0 2.05811 0 1.79289V1C0 0.447715 0.447715 0 1 0ZM11 1H1V1.79289L4.56066 5.35355C4.84196 5.63486 5 6.01639 5 6.41421V9.232L7 10.565V6.41421C7 6.06612 7.121 5.7305 7.3397 5.46358L7.43934 5.35355L11 1.79289V1Z" fill="#4285F4"/>
</svg>
