<svg width="12" height="12" viewBox="0 0 12 12" fill="none" xmlns="http://www.w3.org/2000/svg">
<path d="M9.5 0C10.2797 0 10.9204 0.594849 10.9932 1.35547L11 1.5V3H10V1.5C10 1.25454 9.82309 1.05015 9.58984 1.00781L9.5 1H1.5C1.25454 1 1.05015 1.17691 1.00781 1.41016L1 1.5V10.5C1 10.7455 1.17691 10.9499 1.41016 10.9922L1.5 11H9.5C9.74546 11 9.94985 10.8231 9.99219 10.5898L10 10.5V9H11V10.5C11 11.2797 10.4052 11.9204 9.64453 11.9932L9.5 12H1.5C0.720327 12 0.0795524 11.4052 0.00683594 10.6445L0 10.5V1.5C0 0.720327 0.594849 0.0795522 1.35547 0.00683594L1.5 0H9.5ZM7.85352 3.85352L6.20703 5.5H12V6.5H6.20703L7.85352 8.14648L7.14648 8.85352L4.82324 6.53027C4.55698 6.26401 4.53312 5.84732 4.75098 5.55371L4.82324 5.46973L7.14648 3.14648L7.85352 3.85352Z" fill="#4285F4"/>
</svg>
