<svg width="12" height="12" viewBox="0 0 12 12" fill="none" xmlns="http://www.w3.org/2000/svg">
<path d="M6 0C9.31371 0 12 2.68629 12 6C12 9.31371 9.31371 12 6 12C3.60542 12 1.47427 10.5842 0.519531 8.44629L0.424805 8.22266L1.35449 7.85156C2.10672 9.73692 3.93552 11 6 11C8.76142 11 11 8.76142 11 6C11 3.23858 8.76142 1 6 1C3.98775 1.00001 2.20072 2.19987 1.41504 4.00293L1.33105 4.20605L0.398438 3.84668C1.2825 1.54825 3.49604 1.2579e-05 6 0ZM7.67676 5.46973C7.94302 5.73599 7.96688 6.15268 7.74902 6.44629L7.67676 6.53027L5.35352 8.85352L4.64648 8.14648L6.29297 6.5H0V5.5H6.29297L4.64648 3.85352L5.35352 3.14648L7.67676 5.46973Z" fill="#4285F4"/>
</svg>
