<svg width="12" height="12" viewBox="0 0 12 12" fill="none" xmlns="http://www.w3.org/2000/svg">
<path opacity="0.1" d="M6 0C6.53041 0 7.05192 0.0689581 7.55472 0.203514L7.85408 0.292092L7.54532 1.24323C7.14973 1.11482 6.73813 1.0362 6.31727 1.00989L6 1V0Z" fill="#4285F4"/>
<path opacity="0.2" d="M7.85408 0.292091C8.35466 0.454591 8.8302 0.682311 9.26944 0.968249L9.52853 1.14674L8.93987 1.95512C8.60045 1.70796 8.23161 1.50453 7.84164 1.34994L7.54532 1.24323L7.85408 0.292091Z" fill="#4285F4"/>
<path opacity="0.3" d="M9.52854 1.14674C9.95207 1.45516 10.3336 1.81764 10.6631 2.22409L10.8545 2.47316L10.0459 3.06153C9.79908 2.72233 9.51061 2.41531 9.18807 2.14802L8.93988 1.95513L9.52854 1.14674Z" fill="#4285F4"/>
<path opacity="0.4" d="M10.8545 2.47315C11.1627 2.89666 11.4142 3.35856 11.6022 3.84765L11.7074 4.14428L10.7563 4.45331C10.6266 4.05413 10.447 3.67395 10.2226 3.32101L10.0459 3.06153L10.8545 2.47315Z" fill="#4285F4"/>
<path opacity="0.5" d="M11.7074 4.14428C11.8683 4.63961 11.9642 5.15567 11.9917 5.68261L12 6H11C11 5.57455 10.947 5.15667 10.8434 4.75315L10.7563 4.45331L11.7074 4.14428Z" fill="#4285F4"/>
<path opacity="0.6" d="M12 6C12 6.52969 11.9312 7.05052 11.797 7.55269L11.7087 7.85168L10.7574 7.54333C10.8855 7.14821 10.9639 6.73714 10.9901 6.31685L11 6H12Z" fill="#4285F4"/>
<path opacity="0.7" d="M10.7574 7.54333L11.7087 7.85168C11.5463 8.3527 11.3185 8.82866 11.0325 9.26827L10.8539 9.52759L10.0454 8.93909C10.2927 8.59938 10.4962 8.23022 10.6507 7.8399L10.7574 7.54333Z" fill="#4285F4"/>
<path opacity="0.8" d="M10.0455 8.93909L10.8539 9.52759C10.5456 9.95118 10.1832 10.3328 9.7768 10.6624L9.52777 10.8538L8.93924 10.0453C9.2784 9.79845 9.58538 9.50992 9.8526 9.18731L10.0455 8.93909Z" fill="#4285F4"/>
<path opacity="0.9" d="M8.93923 10.0453L9.52776 10.8538C9.10318 11.1629 8.64002 11.4151 8.14954 11.6033L7.85206 11.7086L7.54364 10.7573C7.94397 10.6275 8.32521 10.4475 8.67908 10.2225L8.93923 10.0453Z" fill="#4285F4"/>
<path d="M7.54365 10.7573L7.85207 11.7086C7.35765 11.8689 6.84261 11.9644 6.31674 11.9918L6 12V11C6.42458 11 6.84162 10.9472 7.24437 10.8441L7.54365 10.7573Z" fill="#4285F4"/>
<path opacity="0.1" d="M4.45352 10.7564C4.84938 10.885 5.26129 10.9637 5.68247 10.9901L5.99999 11V12C5.46917 12 4.94725 11.9309 4.4441 11.7962L4.14453 11.7075L4.45352 10.7564Z" fill="#4285F4"/>
<path opacity="0.2" d="M3.0589 10.044C3.39832 10.2913 3.76717 10.4949 4.15718 10.6496L4.45353 10.7564L4.14454 11.7075C3.6439 11.5448 3.16833 11.3169 2.72909 11.0308L2.47 10.8522L3.0589 10.044Z" fill="#4285F4"/>
<path opacity="0.3" d="M1.95384 8.9381C2.20047 9.2771 2.48869 9.58396 2.81095 9.85115L3.05891 10.044L2.47001 10.8522C2.04686 10.5439 1.66564 10.1815 1.33641 9.77533L1.1452 9.52641L1.95384 8.9381Z" fill="#4285F4"/>
<path opacity="0.4" d="M1.24394 7.54749C1.37361 7.94631 1.55309 8.32616 1.77734 8.67883L1.95384 8.9381L1.1452 9.52641C0.837318 9.10322 0.585945 8.64171 0.398022 8.15305L0.292938 7.85668L1.24394 7.54749Z" fill="#4285F4"/>
<path opacity="0.5" d="M1 6C1 6.42568 1.05309 6.84378 1.15675 7.2475L1.24394 7.54749L0.292938 7.85668C0.131816 7.36111 0.0358014 6.84479 0.00827226 6.31756L0 6H1Z" fill="#4285F4"/>
<path opacity="0.6" d="M0.291097 4.14899L1.2424 4.45723C1.11442 4.85221 1.03607 5.26313 1.00985 5.68327L1 6H0C0 5.47051 0.0687197 4.94987 0.202819 4.44787L0.291097 4.14899Z" fill="#4285F4"/>
<path opacity="0.7" d="M1.14476 2.47421L1.95347 3.06241C1.70652 3.40194 1.50332 3.77085 1.34895 4.16088L1.24241 4.45723L0.291107 4.14899C0.453323 3.64836 0.68076 3.17274 0.966426 2.73338L1.14476 2.47421Z" fill="#4285F4"/>
<path opacity="0.8" d="M2.47031 1.14758L3.05916 1.95583C2.72012 2.20283 2.41329 2.49146 2.1462 2.81414L1.95346 3.06241L1.14474 2.47421C1.4529 2.05053 1.81514 1.66879 2.22137 1.33908L2.47031 1.14758Z" fill="#4285F4"/>
<path opacity="0.9" d="M4.14318 0.292976L4.4524 1.24397C4.05274 1.37392 3.67214 1.55389 3.31886 1.7788L3.05916 1.95582L2.47031 1.14758C2.89417 0.83877 3.35655 0.586681 3.8462 0.398302L4.14318 0.292976Z" fill="#4285F4"/>
<path d="M6 0V1C5.57429 1 5.15616 1.0531 4.75241 1.15677L4.45241 1.24397L4.14319 0.29298C4.63879 0.131835 5.15515 0.0358066 5.68241 0.00827346L6 0Z" fill="#4285F4"/>
</svg>
