<svg width="12" height="12" viewBox="0 0 12 12" fill="none" xmlns="http://www.w3.org/2000/svg">
<path d="M5.5 0C6.27967 0 6.92045 0.594849 6.99316 1.35547L7 1.5V4H6V1.5C6 1.25454 5.82309 1.05015 5.58984 1.00781L5.5 1H1.5C1.25454 1 1.05015 1.17691 1.00781 1.41016L1 1.5V10.5C1 10.7455 1.17691 10.9499 1.41016 10.9922L1.5 11H5.5C5.74546 11 5.94985 10.8231 5.99219 10.5898L6 10.5V8H7V10.5C7 11.2797 6.40515 11.9204 5.64453 11.9932L5.5 12H1.5C0.720327 12 0.0795524 11.4052 0.00683594 10.6445L0 10.5V1.5C0 0.720327 0.594849 0.0795522 1.35547 0.00683594L1.5 0H5.5ZM11 10.5C11 11.2797 10.4052 11.9204 9.64453 11.9932L9.5 12H8V11H9.5C9.74546 11 9.94985 10.8231 9.99219 10.5898L10 10.5V9H11V10.5ZM11.6768 5.46973C11.943 5.73599 11.9669 6.15269 11.749 6.44629L11.6768 6.53027L9.35352 8.85352L8.64648 8.14648L10.293 6.5H5V5.5H10.293L8.64648 3.85352L9.35352 3.14648L11.6768 5.46973ZM9.5 0C10.2797 0 10.9204 0.594849 10.9932 1.35547L11 1.5V3H10V1.5C10 1.25454 9.82309 1.05015 9.58984 1.00781L9.5 1H8V0H9.5Z" fill="#4285F4"/>
</svg>
