<svg width="12" height="12" viewBox="0 0 12 12" fill="none" xmlns="http://www.w3.org/2000/svg">
<path d="M6 0C7.45857 0 8.83659 0.523595 9.91504 1.45312L10.126 1.64453L9.43848 2.37012C8.51566 1.49569 7.29734 1 6 1C3.23858 1 1 3.23858 1 6C1 8.76142 3.23858 11 6 11C7.19514 11 8.32353 10.5796 9.21582 9.8291L9.40332 9.66309L10.084 10.3955C8.98177 11.42 7.5356 12 6 12C2.68629 12 0 9.31371 0 6C0 2.68629 2.68629 0 6 0ZM11.6768 5.46973C11.943 5.73599 11.9669 6.15268 11.749 6.44629L11.6768 6.53027L9.35352 8.85352L8.64648 8.14648L10.293 6.5H5V5.5H10.293L8.64648 3.85352L9.35352 3.14648L11.6768 5.46973Z" fill="#4285F4"/>
</svg>
