<svg width="12" height="12" viewBox="0 0 12 12" fill="none" xmlns="http://www.w3.org/2000/svg">
<path d="M4 1C4.65293 1 5.20703 1.41766 5.41309 2H11V3H5.41309C5.20703 3.58234 4.65293 4 4 4C3.34707 4 2.79297 3.58234 2.58691 3H1V2H2.58691C2.79297 1.41766 3.34707 1 4 1ZM4 2C3.72386 2 3.5 2.22386 3.5 2.5C3.5 2.77614 3.72386 3 4 3C4.27614 3 4.5 2.77614 4.5 2.5C4.5 2.22386 4.27614 2 4 2Z" fill="#4285F4"/>
<path d="M4 8C4.65293 8 5.20703 8.41766 5.41309 9H11V10H5.41309C5.20703 10.5823 4.65293 11 4 11C3.34707 11 2.79297 10.5823 2.58691 10H1V9H2.58691C2.79297 8.41766 3.34707 8 4 8ZM4 9C3.72386 9 3.5 9.22386 3.5 9.5C3.5 9.77614 3.72386 10 4 10C4.27614 10 4.5 9.77614 4.5 9.5C4.5 9.22386 4.27614 9 4 9Z" fill="#4285F4"/>
<path d="M8 4.5C8.65293 4.5 9.20703 4.91766 9.41309 5.5H11V6.5H9.41309C9.20703 7.08234 8.65293 7.5 8 7.5C7.34707 7.5 6.79297 7.08234 6.58691 6.5H1V5.5H6.58691C6.79297 4.91766 7.34707 4.5 8 4.5ZM8 5.5C7.72386 5.5 7.5 5.72386 7.5 6C7.5 6.27614 7.72386 6.5 8 6.5C8.27614 6.5 8.5 6.27614 8.5 6C8.5 5.72386 8.27614 5.5 8 5.5Z" fill="#4285F4"/>
</svg>
