<svg width="12" height="12" viewBox="0 0 12 12" fill="none" xmlns="http://www.w3.org/2000/svg">
<path d="M7.5 3C8.32843 3 9 3.67157 9 4.5V10.5C9 11.3284 8.32843 12 7.5 12H1.5C0.671573 12 0 11.3284 0 10.5V4.5C0 3.67157 0.671573 3 1.5 3H7.5ZM1.5 4C1.22386 4 1 4.22386 1 4.5V10.5C1 10.7761 1.22386 11 1.5 11H7.5C7.77614 11 8 10.7761 8 10.5V4.5C8 4.22386 7.77614 4 7.5 4H1.5ZM12 7.5C12 8.27967 11.4052 8.92045 10.6445 8.99316L10.5 9H10V8H10.5C10.7455 8 10.9499 7.82309 10.9922 7.58984L11 7.5V7H12V7.5ZM12 6H11V3H12V6ZM5 1H4.5C4.25454 1 4.05015 1.17691 4.00781 1.41016L4 1.5V2H3V1.5C3 0.720327 3.59485 0.0795522 4.35547 0.00683594L4.5 0H5V1ZM10.5 0C11.2797 0 11.9204 0.594849 11.9932 1.35547L12 1.5V2H11V1.5C11 1.25454 10.8231 1.05015 10.5898 1.00781L10.5 1H10V0H10.5ZM9 1H6V0H9V1Z" fill="#4285F4"/>
</svg>
