<svg width="12" height="12" viewBox="0 0 12 12" fill="none" xmlns="http://www.w3.org/2000/svg">
<path fill-rule="evenodd" clip-rule="evenodd" d="M2 1.7793C2 1.50421 2.07565 1.23442 2.21867 0.99943L2.29964 0.879599C2.7572 0.267625 3.61383 0.0925939 4.27987 0.497967L11.2145 4.71867C11.4194 4.84334 11.5913 5.0153 11.716 5.22013C12.1467 5.92779 11.9222 6.85062 11.2145 7.28133L4.27987 11.502C4.04488 11.6451 3.77509 11.7207 3.5 11.7207C2.67157 11.7207 2 11.0491 2 10.2207V1.7793ZM10.6946 5.57289L3.75996 1.35219C3.52407 1.20862 3.21646 1.28346 3.07289 1.51934C3.02522 1.59767 3 1.6876 3 1.7793V10.2207C3 10.4968 3.22386 10.7207 3.5 10.7207C3.5917 10.7207 3.68163 10.6955 3.75996 10.6478L10.6946 6.42711C10.9305 6.28354 11.0053 5.97593 10.8618 5.74004C10.8202 5.67177 10.7629 5.61445 10.6946 5.57289Z" fill="#4285F4"/>
</svg>
