<svg width="12" height="12" viewBox="0 0 12 12" fill="none" xmlns="http://www.w3.org/2000/svg">
<path d="M6 0C9.31371 0 12 2.68629 12 6C12 9.31371 9.31371 12 6 12C2.68629 12 0 9.31371 0 6C0 2.68629 2.68629 0 6 0ZM6 1C3.23858 1 1 3.23858 1 6C1 8.76142 3.23858 11 6 11C8.76142 11 11 8.76142 11 6C11 3.23858 8.76142 1 6 1ZM6.5 9.5H5.5V8H6.5V9.5ZM6 2.5C7.07931 2.50001 7.95386 3.37484 7.9541 4.4541C7.9541 5.33729 7.36869 6.08395 6.56445 6.32617L6.5 6.3418V7.5H5.5V5.40918H6C6.52717 5.40917 6.9541 4.98128 6.9541 4.4541C6.95386 3.92713 6.52703 3.50001 6 3.5C5.51062 3.5 5.10709 3.86825 5.05176 4.34277L5.0459 4.4541H4.0459C4.04614 3.37484 4.92068 2.5 6 2.5Z" fill="#4285F4"/>
</svg>
