<svg width="12" height="12" viewBox="0 0 12 12" fill="none" xmlns="http://www.w3.org/2000/svg">
<path d="M7.5 0C8.2797 0 8.92045 0.594888 8.99313 1.35554L9 1.5V7.5C9 8.2797 8.40511 8.92045 7.64446 8.99313L7.5 9H5V8H7.5C7.74546 8 7.94961 7.82312 7.99194 7.58988L8 7.5V1.5C8 1.25454 7.82312 1.05039 7.58988 1.00806L7.5 1H1.5C1.25454 1 1.05039 1.17688 1.00806 1.41012L1 1.5V7.5C1 7.74546 1.17688 7.94961 1.41012 7.99194L1.5 8H2V9H1.5C0.720304 9 0.0795513 8.40511 0.00686658 7.64446L0 7.5V1.5C0 0.720304 0.594888 0.0795513 1.35554 0.00686658L1.5 0H7.5Z" fill="#4285F4"/>
<path d="M7 3V4H4.5C4.25454 4 4.05039 4.17688 4.00806 4.41012L4 4.5V10.5C4 10.7455 4.17688 10.9496 4.41012 10.9919L4.5 11H10.5C10.7455 11 10.9496 10.8231 10.9919 10.5899L11 10.5V4.5C11 4.25454 10.8231 4.05039 10.5899 4.00806L10.5 4H10V3H10.5C11.2797 3 11.9204 3.59489 11.9931 4.35554L12 4.5V10.5C12 11.2797 11.4051 11.9204 10.6445 11.9931L10.5 12H4.5C3.7203 12 3.07955 11.4051 3.00687 10.6445L3 10.5V4.5C3 3.7203 3.59489 3.07955 4.35554 3.00687L4.5 3H7Z" fill="#4285F4"/>
</svg>
