<svg width="12" height="12" viewBox="0 0 12 12" fill="none" xmlns="http://www.w3.org/2000/svg">
<path d="M6.5 1C7.2797 1 7.92045 1.59489 7.99313 2.35554L8 2.5V6.5C8 7.2797 7.40511 7.92045 6.64446 7.99313L6.5 8H6V7H6.5C6.74546 7 6.94961 6.82312 6.99194 6.58988L7 6.5V2.5C7 2.25454 6.82312 2.05039 6.58988 2.00806L6.5 2H2.5C2.25454 2 2.05039 2.17688 2.00806 2.41012L2 2.5V6.5C2 6.74546 2.17688 6.94961 2.41012 6.99194L2.5 7H3V8H2.5C1.7203 8 1.07955 7.40511 1.00687 6.64446L1 6.5V2.5C1 1.7203 1.59489 1.07955 2.35554 1.00687L2.5 1H6.5Z" fill="#4285F4"/>
<path d="M6 4V5H5.5C5.25454 5 5.05039 5.17688 5.00806 5.41012L5 5.5V9.5C5 9.74546 5.17688 9.94961 5.41012 9.99194L5.5 10H9.5C9.74546 10 9.94961 9.82312 9.99194 9.58988L10 9.5V5.5C10 5.25454 9.82312 5.05039 9.58988 5.00806L9.5 5H9V4H9.5C10.2797 4 10.9204 4.59489 10.9931 5.35554L11 5.5V9.5C11 10.2797 10.4051 10.9204 9.64446 10.9931L9.5 11H5.5C4.7203 11 4.07955 10.4051 4.00687 9.64446L4 9.5V5.5C4 4.7203 4.59489 4.07955 5.35554 4.00687L5.5 4H6Z" fill="#4285F4"/>
</svg>
