<svg width="12" height="12" viewBox="0 0 12 12" fill="none" xmlns="http://www.w3.org/2000/svg">
<path fill-rule="evenodd" clip-rule="evenodd" d="M6 1V0H1V1H2.682L2.55883 1.08426C1.01152 2.16943 0 3.96659 0 6C0 8.50064 1.54404 10.7121 3.838 11.5985L4.19844 10.6657L3.99604 10.5824C2.19653 9.79512 1 8.0096 1 6C1 3.23858 3.23858 1 6 1ZM12 6C12 3.52058 10.482 1.32401 8.21668 0.422909L7.84707 1.3521L8.05424 1.43994C9.82692 2.23897 11 4.01017 11 6C11 8.68876 8.87769 10.8818 6.21689 10.9954L6 11V12H11V11L9.317 10.999L9.44117 10.9157C10.9885 9.83057 12 8.03341 12 6Z" fill="#4285F4"/>
</svg>
