<svg width="12" height="12" viewBox="0 0 12 12" fill="none" xmlns="http://www.w3.org/2000/svg">
<path d="M11.3612 0.130098C11.7373 0.181452 12.0003 0.528374 11.949 0.904512L10.535 11.2785C10.5217 11.376 10.4869 11.4698 10.4344 11.5529C10.2316 11.8738 9.80709 11.9695 9.48615 11.7668L6.68928 10.0002H2.95295C2.57333 10.0002 2.26557 9.69231 2.26545 9.31271C2.26545 9.16692 2.31184 9.02597 2.39631 8.90939L2.46662 8.82639L3.38166 7.91037L0.526193 6.10764C0.413195 6.03611 0.322786 5.93348 0.267404 5.81174C0.110402 5.46613 0.26363 5.05772 0.609201 4.90061L10.9832 0.185762C11.1012 0.132118 11.2327 0.112609 11.3612 0.130098ZM4.97248 7.73264L6.97932 9.00021H6.99983V9.01291L9.6092 10.6613L10.8026 1.90354L4.97248 7.73264ZM3.70588 9.00021H5.10627L4.24787 8.45822L3.70588 9.00021ZM1.54963 5.57053L4.10627 7.18576L9.19807 2.09396L1.54963 5.57053Z" fill="#4285F4"/>
</svg>
