<svg width="12" height="12" viewBox="0 0 12 12" fill="none" xmlns="http://www.w3.org/2000/svg">
<path d="M7.58594 0C7.98371 4.00259e-05 8.36522 0.158184 8.64648 0.439453L11.5605 3.35352C11.8418 3.63478 12 4.01629 12 4.41406V10.5C12 11.3284 11.3284 12 10.5 12H1.5C0.671573 12 0 11.3284 0 10.5V1.5C0 0.671573 0.671573 0 1.5 0H7.58594ZM1.5 1C1.22386 1 1 1.22386 1 1.5V10.5C1 10.7761 1.22386 11 1.5 11H10.5C10.7761 11 11 10.7761 11 10.5V4.41406C11 4.28151 10.9472 4.15428 10.8535 4.06055L7.93945 1.14648C7.84572 1.05275 7.71849 1.00004 7.58594 1H1.5Z" fill="#4285F4"/>
<path d="M8 7C8.51284 7 8.93551 7.38604 8.99327 7.88338L9 8V11.5H8V8H4V11.5H3V8C3 7.48716 3.38604 7.06449 3.88338 7.00673L4 7H8Z" fill="#4285F4"/>
<path d="M4 3V5H3V3H4Z" fill="#4285F4"/>
</svg>
