<svg width="12" height="12" viewBox="0 0 12 12" fill="none" xmlns="http://www.w3.org/2000/svg">
<path d="M6 0C9.31371 0 12 2.68629 12 6C12 9.31371 9.31371 12 6 12C2.68629 12 0 9.31371 0 6C0 2.68629 2.68629 0 6 0ZM6 1C3.23858 1 1 3.23858 1 6C1 8.76142 3.23858 11 6 11C8.76142 11 11 8.76142 11 6C11 3.23858 8.76142 1 6 1ZM9.38379 4.88379L6.2373 8.03027C5.87682 8.39072 5.30927 8.41829 4.91699 8.11328L4.82324 8.03027L3.17676 6.38379L3.88379 5.67676L5.53027 7.32324L8.67676 4.17676L9.38379 4.88379Z" fill="#4285F4"/>
</svg>
