<svg width="12" height="12" viewBox="0 0 12 12" fill="none" xmlns="http://www.w3.org/2000/svg">
<path d="M5.55859 1.73535C5.80267 1.49129 6.19831 1.49128 6.44238 1.73535L10.6406 5.93359C10.7574 6.05066 10.8231 6.20963 10.8232 6.375C10.823 6.71984 10.5431 6.99976 10.1982 7H9V11C8.99979 11.5125 8.61416 11.9362 8.11719 11.9941L8 12H4C3.44805 11.9998 3.00023 11.552 3 11V7H1.80176C1.66966 6.99991 1.54128 6.95823 1.43555 6.88184L1.36035 6.81738C1.11628 6.57331 1.11628 6.17767 1.36035 5.93359L5.55859 1.73535ZM2.70605 6H3.375C3.6886 6.00021 3.94854 6.23196 3.99316 6.5332L4 6.625V11H8V6.625C8.00023 6.28015 8.28015 6.00023 8.625 6H9.29297L6 2.70703L2.70605 6ZM10 0C10.5128 0 10.9354 0.38645 10.9932 0.883789L11 1V2H10V1H2V2H1V1C1 0.487164 1.38645 0.064601 1.88379 0.00683594L2 0H10Z" fill="#4285F4"/>
</svg>
