<svg width="12" height="12" viewBox="0 0 12 12" fill="none" xmlns="http://www.w3.org/2000/svg">
<path d="M2 9.5C2 9.74546 2.17691 9.94985 2.41016 9.99219L2.5 10H4V11H2.5C1.72033 11 1.07955 10.4052 1.00684 9.64453L1 9.5V8H2V9.5ZM11 9.5C11 10.2797 10.4052 10.9204 9.64453 10.9932L9.5 11H8V10H9.5C9.74546 10 9.94985 9.82309 9.99219 9.58984L10 9.5V8H11V9.5ZM9.35352 4.35352L5.70703 8C5.34654 8.36043 4.77899 8.38802 4.38672 8.08301L4.29297 8L2.64648 6.35352L3.35352 5.64648L5 7.29297L8.64648 3.64648L9.35352 4.35352ZM4 2H2.5C2.25454 2 2.05015 2.17691 2.00781 2.41016L2 2.5V4H1V2.5C1 1.72033 1.59485 1.07955 2.35547 1.00684L2.5 1H4V2ZM9.5 1C10.2797 1 10.9204 1.59485 10.9932 2.35547L11 2.5V4H10V2.5C10 2.25454 9.82309 2.05015 9.58984 2.00781L9.5 2H8V1H9.5Z" fill="#4285F4"/>
</svg>
